<svg width="42" height="41" viewBox="0 0 42 41" fill="none" xmlns="http://www.w3.org/2000/svg">
<path d="M20.5728 26.7882C20.8026 26.997 21.0906 27.0996 21.378 27.0996C21.4236 27.0996 21.4686 27.0906 21.5148 27.0858C21.5316 27.0864 21.549 27.0906 21.5658 27.0906C21.8928 27.0906 22.2186 26.9574 22.455 26.6964L31.5936 16.614C32.0388 16.1232 32.0016 15.3642 31.5102 14.9196C31.0194 14.4738 30.2604 14.5122 29.8158 15.003L21.3936 24.294L12.1014 15.8718C11.61 15.4254 10.8516 15.4638 10.407 15.9552C9.9618 16.446 9.999 17.205 10.4904 17.6496L20.5728 26.7882Z" fill="#33658A"/>
<path d="M21 40.9284C32.0694 40.9284 41.0748 31.923 41.0748 20.8542C41.0748 9.78479 32.0694 0.779388 21 0.779388C9.9312 0.779388 0.925797 9.78479 0.925797 20.8542C0.925797 31.923 9.9312 40.9284 21 40.9284ZM21 3.17939C30.7458 3.17939 38.6748 11.1084 38.6748 20.8542C38.6748 30.5994 30.7458 38.5284 21 38.5284C11.2548 38.5284 3.3258 30.5994 3.3258 20.8542C3.3258 11.1084 11.2548 3.17939 21 3.17939Z" fill="#33658A"/>
</svg>
