<svg width="387" height="490" viewBox="0 0 387 490" fill="none" xmlns="http://www.w3.org/2000/svg">
<path d="M271.455 235.018C235.323 256.535 191.246 231.183 193.317 230.741C261.622 215.89 267.657 172.797 267.657 172.797C254.021 139.478 216.851 150.204 216.851 150.204C215.775 197.487 159.498 200.15 159.498 200.15C155.883 184.808 156.082 148.988 156.082 148.988C139.024 137.063 135.571 142.125 135.571 142.125C140.95 94.7876 162.612 79.5268 162.612 79.5268C166.222 76.1648 182.354 68.6071 190.638 67.6281L190.934 68.9406C190.934 68.9406 182.558 89.8549 198.61 91.232C212.117 92.4154 219.793 75.7883 221.885 70.5113C239.449 75.9551 256.21 88.1389 267.361 108.634C293.741 157.122 271.455 235.018 271.455 235.018Z" fill="white"/>
<path d="M275.36 214.615L363.154 272.71C380.179 283.974 377.99 309.611 359.319 317.825L256.576 363.043C247.021 367.247 236.545 368.921 226.156 367.905C215.766 366.889 205.813 363.215 197.254 357.239L157.798 329.654" stroke="black" stroke-width="4.21" stroke-miterlimit="10"/>
<path d="M275.36 233.349L272.407 231.391L363.17 291.434C380.195 302.698 378.006 328.335 359.335 336.549L256.592 381.767C247.037 385.971 236.561 387.645 226.172 386.629C215.782 385.612 205.829 381.939 197.27 375.963L147.104 340.234" stroke="black" stroke-width="4.21" stroke-miterlimit="10"/>
<path d="M351.761 314.619L257.329 356.184C248.547 360.046 238.92 361.585 229.372 360.65C219.824 359.715 210.677 356.34 202.811 350.848L166.625 325.426C171.607 321.607 177.19 318.644 183.145 316.658C198.061 311.591 212.618 305.522 226.716 298.492C237.418 293.198 246.819 285.606 254.246 276.258C261.674 266.909 266.946 256.036 269.685 244.415C271.579 236.373 273.241 228.24 274.602 220.063L357.71 275.001C373.353 285.351 368.915 307.077 351.761 314.619Z" fill="#CBA135"/>
<path d="M108.433 435.081C108.433 435.081 124.99 428.217 128.164 423.042C128.164 423.042 128.761 434.79 125.662 438.803C122.564 442.816 104.049 453.424 103.054 452.095C102.058 450.766 108.433 435.081 108.433 435.081Z" fill="#CBA135"/>
<path d="M57.4649 463.075C57.4649 463.075 60.4773 467.163 71.1657 463.075C81.8542 458.987 105.108 443.93 105.108 443.93C105.108 443.93 98.6212 461.348 96.2705 463.263C93.9198 465.178 49.5091 486.932 49.5091 486.932C49.5091 486.932 29.6545 489.756 37.1369 475.635L57.4649 463.075Z" fill="#CBA135"/>
<path d="M121.381 235.491C96.9052 245.017 71.0044 267.4 78.4545 329.385L80.5255 345.49" stroke="black" stroke-width="4.21" stroke-miterlimit="10"/>
<path d="M121.343 195.012C125.345 189.299 128.96 183.124 131.176 176.475C133.392 169.826 133.505 162.624 134.124 155.631C135.77 136.879 138.32 121.37 145.555 103.904C151.821 88.7887 170.751 69.316 189.583 67.4709L191.278 67.3257" stroke="black" stroke-width="4.21" stroke-miterlimit="10"/>
<path d="M168.68 234.119C168.588 233.855 168.497 233.608 168.4 233.349" stroke="black" stroke-width="4.21" stroke-miterlimit="10"/>
<path d="M159.498 198.987C158.572 193.549 157.884 188.277 157.346 183.274C157.347 183.18 157.337 183.086 157.314 182.995C154.495 155.061 157.346 134.738 157.346 134.738" stroke="black" stroke-width="4.21" stroke-miterlimit="10"/>
<path d="M225.291 29.4469L220.987 31.1254C220.987 31.2599 220.987 32.9382 220.804 35.2889C220.604 38.0963 220.158 40.8806 219.47 43.6106C219.852 41.7494 220.406 37.3277 217.975 34.2508C217.937 34.1878 217.894 34.1281 217.846 34.0732C216.232 32.1314 214.242 32.9006 212.644 34.2346C211.541 35.1679 210.577 36.255 209.782 37.4621C210.061 33.8683 209.417 30.2632 207.91 26.9886C206.928 24.7548 205.625 22.6763 204.043 20.8186C206.479 29.2102 203.354 34.7026 203.354 34.7026C195.097 36.6445 189.368 36.2303 185.097 35.4934C181.498 32.1367 182.746 20.0494 182.746 20.0494C179.126 23.008 179.998 34.4552 179.998 34.4552C179.536 31.4681 179.592 28.4234 180.164 25.4555C178.366 27.9986 177.327 31.0001 177.168 34.1109L177.104 34.0786C176.854 34.0146 176.608 33.9371 176.367 33.8473C175.923 33.6139 175.494 33.3551 175.081 33.0727L172.698 31.459C176.297 13.0995 188.879 1.55572 208.319 4.94461C209.588 5.16333 210.837 5.48721 212.052 5.91287C224.86 12.5885 225.291 29.4469 225.291 29.4469Z" fill="#CBA135"/>
<path d="M114.35 208.25L109.45 193.5C109.341 193.157 109.147 192.847 108.885 192.599C108.623 192.352 108.303 192.175 107.954 192.086C107.911 192.086 107.863 192.086 107.814 192.053C107.766 192.021 107.755 192.053 107.723 192.053C107.61 192.046 107.497 192.046 107.384 192.053C106.84 192.055 106.318 192.263 105.921 192.634C105.523 193.002 105.205 193.448 104.987 193.944C104.77 194.44 104.657 194.976 104.657 195.517C104.657 195.941 104.724 196.363 104.856 196.765C105.932 199.88 107.847 205.501 108.756 208.062" fill="#CBA135"/>
<path d="M113.242 208.251L107.959 192.087C107.916 192.087 107.868 192.087 107.82 192.054C107.771 192.022 107.76 192.054 107.728 192.054L104.958 191.516C103.479 191.242 101.999 190.946 100.52 190.672C98.7449 190.317 96.959 190.021 95.1892 189.596C94.7713 189.478 94.342 189.406 93.909 189.381C93.3635 189.379 92.8391 189.59 92.4458 189.967C92.0445 190.334 91.7245 190.782 91.5066 191.28C91.2888 191.778 91.1785 192.317 91.1817 192.861C91.179 193.28 91.2463 193.697 91.3807 194.093C92.5695 197.579 94.8342 204.174 95.555 206.175L113.242 208.251Z" fill="#CBA135"/>
<path d="M217.684 134.732C217.146 140.72 216.867 147.965 216.678 157.072C216.678 176.437 195.269 192.473 176.243 196.141L141.354 204.022C136.744 204.915 132.661 202.037 129.455 200.127C126.157 198.164 122.779 195.824 120.402 194.087C116.98 191.585 110.391 193.597 111.741 199.563C112.032 200.697 112.581 201.749 113.345 202.636C114.109 203.523 115.068 204.223 116.147 204.678C116.754 204.951 117.38 205.181 118.019 205.367C118.257 205.426 118.468 205.563 118.62 205.756C118.773 205.948 118.858 206.185 118.861 206.43C118.865 206.676 118.788 206.915 118.641 207.112C118.495 207.309 118.287 207.452 118.051 207.518C115.028 208.562 109.493 209.181 100.563 205.905C89.1215 201.693 88.2339 227.803 103.877 232.349H103.936C118.347 236.706 133.855 236.147 148.75 235.523C165.664 234.882 182.495 232.829 199.067 229.385C207.496 227.599 216.157 225.743 223.87 221.929C237.157 215.361 246.732 207.83 255.839 196.109C266.06 182.968 270.422 165.727 272.886 149.563C275.704 131.069 271.81 115.453 261.896 99.5364L261.53 98.9554" stroke="black" stroke-width="4.21" stroke-miterlimit="10"/>
<path d="M114.35 208.25L109.45 193.5C109.341 193.157 109.147 192.847 108.885 192.599C108.623 192.352 108.303 192.175 107.954 192.086C107.911 192.086 107.863 192.086 107.814 192.053C107.766 192.021 107.755 192.053 107.723 192.053C107.61 192.046 107.497 192.046 107.384 192.053C106.84 192.055 106.318 192.263 105.921 192.634C105.523 193.002 105.205 193.448 104.987 193.944C104.77 194.44 104.657 194.976 104.657 195.517C104.657 195.941 104.724 196.363 104.856 196.765C105.932 199.88 107.847 205.501 108.756 208.062" stroke="black" stroke-width="4.21" stroke-miterlimit="10"/>
<path d="M107.959 192.087C107.916 192.087 107.868 192.087 107.82 192.054C107.771 192.022 107.76 192.054 107.728 192.054L104.958 191.516C103.479 191.242 101.999 190.946 100.52 190.672C98.7449 190.317 96.959 190.021 95.1892 189.596C94.7713 189.478 94.342 189.406 93.909 189.381C93.3635 189.379 92.8391 189.59 92.4458 189.967C92.0445 190.334 91.7245 190.782 91.5066 191.28C91.2888 191.778 91.1785 192.317 91.1817 192.861C91.179 193.28 91.2463 193.697 91.3807 194.093C92.5695 197.579 94.8342 204.174 95.555 206.175" stroke="black" stroke-width="4.21" stroke-miterlimit="10"/>
<path d="M175.495 33.5815C175.495 40.5745 176.856 47.2608 180.213 53.4362C182.902 58.3958 186.851 63.3931 192.499 65.0337C193.751 65.3947 195.048 65.5759 196.35 65.5716C205.936 65.5286 207.432 54.1731 207.432 54.1731" stroke="black" stroke-width="4.21" stroke-miterlimit="10"/>
<path d="M220.482 37.639V37.6713C220.037 41.1409 219.274 44.5626 218.201 47.8918C216.919 51.8633 216.616 56.0859 217.319 60.1994L218.809 68.8653C218.876 69.2515 219.052 69.6108 219.314 69.9019C219.577 70.1929 219.916 70.4043 220.293 70.5113C239.207 76.0035 255.995 88.1228 265.764 105.621C277.948 127.472 280.169 153.787 279.185 178.316C278.319 199.58 274.881 220.72 270.002 241.414C267.02 254.061 261.282 265.895 253.198 276.068C245.113 286.242 234.883 294.505 223.236 300.268C207.909 307.921 192.082 314.525 175.861 320.036C167.275 322.88 159.43 327.601 152.897 333.857C146.364 340.112 141.307 347.746 138.094 356.201L99.9767 457.555C98.576 461.297 95.8132 464.371 92.2414 466.162L55.7167 484.511C51.1046 486.819 45.8432 487.487 40.8002 486.404C39.493 486.122 38.3005 485.452 37.379 484.483C36.457 483.514 35.8486 482.29 35.6329 480.969C35.4167 479.649 35.6033 478.295 36.1681 477.082C36.733 475.87 37.6496 474.856 38.7991 474.172L57.4542 463.074L83.1076 332.295C84.9128 320.628 89.2237 309.49 95.7433 299.647C102.262 289.804 110.836 281.49 120.875 275.276C122.213 274.46 123.608 273.741 125.049 273.124L180.659 248.977" stroke="black" stroke-width="4.21" stroke-miterlimit="10"/>
<path d="M205.194 3.68039C202.221 2.97184 199.143 2.81503 196.114 3.21777C195.989 3.22052 195.866 3.23133 195.743 3.25005" stroke="black" stroke-width="4.21" stroke-miterlimit="10"/>
<path d="M191.724 67.6426C191.724 67.6426 181.886 90.1976 199.481 91.3111C215.269 92.3223 221.062 70.8701 221.062 70.8701" stroke="black" stroke-width="4.21" stroke-miterlimit="10"/>
<path d="M219.244 44.4313C219.357 44.0171 221.052 37.9009 217.813 34.0494C214.575 30.1979 210.186 36.8036 209.745 37.4652C210.605 27.982 204.016 20.79 204.016 20.79C206.447 29.1869 203.317 34.6734 203.317 34.6734C191.283 37.4921 184.661 35.3458 179.965 34.4206C179.503 31.4351 179.562 28.3925 180.138 25.4268C178.334 27.9634 177.295 30.9628 177.141 34.0709H177.066C175.279 33.596 173.584 32.823 172.053 31.7848L169.67 30.171C173.274 11.8175 185.85 0.262959 205.291 3.65185C224.731 7.04075 225.274 29.3967 225.274 29.3967L220.944 31.0801C220.944 31.0801 220.982 38.4604 219.244 44.4313Z" stroke="black" stroke-width="4.21" stroke-miterlimit="10"/>
<path d="M183.037 43.4744V52.3985C183.037 52.5071 183.064 52.6142 183.114 52.7105C183.163 52.8073 183.235 52.8907 183.323 52.9547C183.411 53.0187 183.512 53.0606 183.62 53.0784C183.727 53.0956 183.837 53.0875 183.941 53.0547C184.643 52.8223 185.288 52.4447 185.834 51.9466" stroke="black" stroke-width="4.21" stroke-miterlimit="10"/>
<path d="M177.7 50.2496C180.515 49.1522 181.56 45.0898 180.034 41.1759C178.508 37.262 174.989 34.9791 172.174 36.0764C169.359 37.1738 168.315 41.2362 169.84 45.1501C171.366 49.064 174.885 51.3469 177.7 50.2496Z" stroke="black" stroke-width="4.21" stroke-miterlimit="10"/>
<path d="M194.639 52.8024C197.454 51.7051 198.499 47.6427 196.973 43.7288C195.447 39.8149 191.929 37.5319 189.114 38.6293C186.298 39.7267 185.254 43.789 186.78 47.7029C188.305 51.6168 191.824 53.8998 194.639 52.8024Z" stroke="black" stroke-width="4.21" stroke-miterlimit="10"/>
<path d="M180.67 43.9371C180.67 43.9371 182.338 42.0328 185.834 44.2652" stroke="black" stroke-width="4.21" stroke-miterlimit="10"/>
<path d="M190.934 64.47C190.934 64.47 192.144 68.5689 195.705 81.8555" stroke="black" stroke-width="4.21" stroke-miterlimit="10"/>
<path d="M101.779 452.767L122.758 441.444C123.96 440.792 124.985 439.856 125.743 438.719C126.502 437.58 126.971 436.274 127.109 434.913C130.595 400.675 129.53 379.029 129.53 379.029" stroke="black" stroke-width="4.21" stroke-miterlimit="10"/>
<path d="M82.7364 277.179L2 220.757" stroke="black" stroke-width="4.21" stroke-miterlimit="10"/>
<path d="M78.1641 292.726L2 239.493" stroke="black" stroke-width="4.21" stroke-miterlimit="10"/>
<path d="M387 185.481V231.673C387 233.79 386.385 235.863 385.229 237.638C384.074 239.413 382.428 240.815 380.491 241.673L323.203 267.041L305.688 293.657C305.237 294.317 304.589 294.816 303.835 295.083C303.082 295.35 302.263 295.37 301.497 295.141C300.732 294.911 300.059 294.444 299.577 293.807C299.094 293.17 298.827 292.396 298.813 291.597V277.848L292.939 280.446C291.633 281.017 290.205 281.255 288.783 281.138C287.363 281.02 285.993 280.552 284.797 279.774C283.602 278.997 282.619 277.934 281.936 276.682C281.253 275.431 280.892 274.028 280.885 272.603V234.029C280.885 229.218 282.293 224.511 284.933 220.49C287.574 216.468 291.333 213.306 295.747 211.393L374.477 177.262C375.84 176.67 377.329 176.427 378.81 176.554C380.29 176.681 381.716 177.174 382.958 177.99C384.2 178.805 385.22 179.917 385.926 181.225C386.632 182.533 387.001 183.995 387 185.481Z" fill="#D7E8F0"/>
<path d="M316.725 245.854C319.546 240.411 318.783 234.416 315.019 232.465C311.255 230.514 305.916 233.346 303.094 238.789C300.273 244.234 301.036 250.228 304.8 252.179C308.564 254.13 313.903 251.299 316.725 245.854Z" fill="white"/>
<path d="M341.191 235.382C344.013 229.938 343.249 223.943 339.486 221.992C335.722 220.041 330.383 222.873 327.561 228.317C324.739 233.761 325.503 239.755 329.267 241.706C333.03 243.658 338.369 240.826 341.191 235.382Z" fill="white"/>
<path d="M364.834 224.073C367.656 218.629 366.893 212.634 363.129 210.684C359.365 208.732 354.027 211.564 351.205 217.008C348.383 222.452 349.147 228.447 352.91 230.398C356.674 232.348 362.013 229.517 364.834 224.073Z" fill="white"/>
</svg>
