<svg width="390" height="382" viewBox="0 0 390 382" fill="none" xmlns="http://www.w3.org/2000/svg">
<mask id="mask0_366_99" style="mask-type:luminance" maskUnits="userSpaceOnUse" x="0" y="-1" width="390" height="383">
<path d="M389.408 -0.00500488H0.837997V381.74H389.408V-0.00500488Z" fill="white"/>
</mask>
<g mask="url(#mask0_366_99)">
<path d="M369.979 329.7H320.072V334.93C320.072 341.432 322.701 347.668 327.381 352.265C332.06 356.863 338.407 359.446 345.026 359.446C351.644 359.446 357.991 356.863 362.67 352.265C367.35 347.668 369.979 341.432 369.979 334.93V329.7Z" fill="#A0A0A0"/>
<path d="M154.323 95.3667L154.242 46.7668C154.243 40.2653 156.871 34.0299 161.55 29.4314C166.228 24.8329 172.574 22.2476 179.192 22.2435H345.018" stroke="#CCDDE2" stroke-width="4.46" stroke-miterlimit="10"/>
<path d="M320.068 334.56V329.696V91.3428V46.7664" stroke="#CCDDE2" stroke-width="4.46" stroke-miterlimit="10"/>
<path d="M320.072 85.659H369.979V46.7668C369.979 40.2649 367.35 34.0291 362.67 29.4315C357.991 24.8339 351.644 22.251 345.026 22.251C338.407 22.251 332.06 24.8339 327.381 29.4315C322.701 34.0291 320.072 40.2649 320.072 46.7668V91.3431" fill="#A0A0A0"/>
<path d="M320.072 85.659H369.979V46.7668C369.979 40.2649 367.35 34.0291 362.67 29.4315C357.991 24.8339 351.644 22.251 345.026 22.251C338.407 22.251 332.06 24.8339 327.381 29.4315C322.701 34.0291 320.072 40.2649 320.072 46.7668V91.3431" stroke="#CCDDE2" stroke-width="4.46" stroke-miterlimit="10"/>
<path d="M320.064 329.7V334.564C320.065 341.066 322.695 347.302 327.375 351.899C332.056 356.497 338.403 359.08 345.022 359.08" stroke="#CCDDE2" stroke-width="4.46" stroke-miterlimit="10"/>
<path d="M190.818 359.083H179.207" stroke="#CCDDE2" stroke-width="4.46" stroke-miterlimit="10"/>
<path d="M320.072 329.698H369.98V334.561C369.978 341.064 367.347 347.301 362.666 351.899C357.985 356.498 351.637 359.082 345.018 359.084H224.534" stroke="#CCDDE2" stroke-width="4.46" stroke-miterlimit="10"/>
<path d="M292.141 130.055H251.823" stroke="#CCDDE2" stroke-width="4.46" stroke-miterlimit="10"/>
<path d="M292.141 145.413H251.823" stroke="#CCDDE2" stroke-width="4.46" stroke-miterlimit="10"/>
<path d="M292.141 160.775H251.823" stroke="#CCDDE2" stroke-width="4.46" stroke-miterlimit="10"/>
<path d="M292.141 176.131H251.823" stroke="#CCDDE2" stroke-width="4.46" stroke-miterlimit="10"/>
<path d="M292.141 191.494H251.823" stroke="#CCDDE2" stroke-width="4.46" stroke-miterlimit="10"/>
<path d="M292.141 206.852H251.823" stroke="#CCDDE2" stroke-width="4.46" stroke-miterlimit="10"/>
<path d="M292.141 258.162H251.823" stroke="#CCDDE2" stroke-width="4.46" stroke-miterlimit="10"/>
<path d="M292.141 265.323H251.823" stroke="#CCDDE2" stroke-width="4.46" stroke-miterlimit="10"/>
<path d="M292.141 272.485H251.823" stroke="#CCDDE2" stroke-width="4.46" stroke-miterlimit="10"/>
<path d="M292.141 279.646H251.823" stroke="#CCDDE2" stroke-width="4.46" stroke-miterlimit="10"/>
<path d="M301.618 109.918H241.666C237.31 109.918 233.778 113.388 233.778 117.668V292.69C233.778 296.97 237.31 300.439 241.666 300.439H301.618C305.975 300.439 309.506 296.97 309.506 292.69V117.668C309.506 113.388 305.975 109.918 301.618 109.918Z" stroke="#CCDDE2" stroke-width="4.46" stroke-miterlimit="10"/>
<path d="M251.823 94.6067H219.925" stroke="#CCDDE2" stroke-width="4.46" stroke-miterlimit="10"/>
<path d="M251.823 76.5647H225.074" stroke="#CCDDE2" stroke-width="4.46" stroke-miterlimit="10"/>
<path d="M251.823 85.5864H221.336" stroke="#CCDDE2" stroke-width="4.46" stroke-miterlimit="10"/>
<path d="M251.823 67.5414H215.737" stroke="#CCDDE2" stroke-width="4.46" stroke-miterlimit="10"/>
<path d="M280.888 78.4669C283.616 78.4669 285.827 76.2944 285.827 73.6149C285.827 70.9351 283.616 68.7629 280.888 68.7629C278.16 68.7629 275.949 70.9351 275.949 73.6149C275.949 76.2944 278.16 78.4669 280.888 78.4669Z" fill="#A0A0A0"/>
<path d="M268.376 93.389C268.434 90.1659 269.778 87.094 272.119 84.8349C274.459 82.5757 277.609 81.3098 280.89 81.3098C284.171 81.3098 287.321 82.5757 289.662 84.8349C292.002 87.094 293.346 90.1659 293.404 93.389H268.376Z" fill="#A0A0A0"/>
<path d="M294.135 64.5591H267.646C265.676 64.5591 264.079 66.1281 264.079 68.0636V94.0871C264.079 96.0226 265.676 97.5915 267.646 97.5915H294.135C296.105 97.5915 297.702 96.0226 297.702 94.0871V68.0636C297.702 66.1281 296.105 64.5591 294.135 64.5591Z" stroke="#CCDDE2" stroke-width="4.46" stroke-miterlimit="10"/>
<path d="M282.108 313.79L285.769 321.07C285.867 321.264 286.01 321.432 286.188 321.559C286.366 321.687 286.573 321.77 286.791 321.803L294.985 322.971C295.239 323.005 295.478 323.109 295.674 323.27C295.87 323.431 296.016 323.644 296.095 323.883C296.173 324.122 296.182 324.379 296.119 324.623C296.056 324.866 295.925 325.088 295.739 325.261L289.821 330.93C289.664 331.081 289.546 331.268 289.478 331.474C289.41 331.681 289.395 331.9 289.433 332.114L290.828 340.13C290.871 340.376 290.843 340.629 290.747 340.86C290.652 341.091 290.492 341.291 290.287 341.438C290.081 341.584 289.838 341.671 289.585 341.689C289.332 341.707 289.078 341.655 288.854 341.539L281.537 337.763C281.342 337.662 281.124 337.608 280.904 337.608C280.683 337.608 280.465 337.662 280.27 337.763L272.957 341.539C272.732 341.654 272.479 341.706 272.226 341.688C271.973 341.67 271.73 341.583 271.524 341.436C271.319 341.29 271.159 341.09 271.063 340.859C270.966 340.629 270.938 340.376 270.98 340.13L272.378 332.114C272.416 331.9 272.401 331.681 272.333 331.474C272.265 331.268 272.148 331.082 271.99 330.93L266.053 325.242C265.868 325.068 265.736 324.847 265.673 324.603C265.61 324.36 265.618 324.103 265.697 323.864C265.776 323.625 265.922 323.412 266.118 323.251C266.314 323.089 266.553 322.986 266.806 322.952L274.966 321.783C275.185 321.751 275.392 321.668 275.571 321.54C275.749 321.413 275.894 321.245 275.992 321.051L279.668 313.79C279.78 313.566 279.954 313.377 280.17 313.245C280.385 313.114 280.634 313.044 280.888 313.044C281.142 313.044 281.391 313.114 281.607 313.245C281.822 313.377 281.996 313.566 282.108 313.79Z" fill="#A0A0A0"/>
<path d="M178.698 332.086H248.244" stroke="#CCDDE2" stroke-width="4.46" stroke-miterlimit="10"/>
<path d="M178.698 341.669H248.244" stroke="#CCDDE2" stroke-width="4.46" stroke-miterlimit="10"/>
<path d="M154.712 97.5698C152.613 108.144 147.966 154.908 143.797 199.61C143.66 199.713 143.515 199.808 143.365 199.893C143.062 200.08 142.759 200.275 142.445 200.439C142.445 200.439 142.421 200.439 142.406 200.465C142.398 200.463 142.39 200.463 142.382 200.465L141.815 200.775L141.586 200.889C141.345 201.011 141.12 201.122 140.879 201.221L140.805 201.259C140.614 201.347 140.416 201.435 140.21 201.508L139.907 201.645C139.666 201.733 139.414 201.832 139.173 201.916L138.528 202.141C138.421 202.167 138.316 202.2 138.213 202.24C138.011 202.302 137.824 202.363 137.607 202.412C137.533 202.439 137.455 202.45 137.382 202.477C137.113 202.55 136.838 202.615 136.558 202.676C136.278 202.737 136.053 202.786 135.781 202.836C135.744 202.85 135.706 202.859 135.668 202.863C135.642 202.868 135.616 202.868 135.59 202.863C135.314 202.912 135.035 202.962 134.77 203C134.72 203 134.669 203 134.607 203.023C134.277 203.073 133.95 203.111 133.62 203.134C133.29 203.157 132.936 203.199 132.583 203.21C132.229 203.222 131.875 203.233 131.522 203.233C129.859 203.24 128.201 203.062 126.579 202.702C122.612 201.804 118.97 199.857 116.046 197.073C113.123 194.289 111.029 190.774 109.991 186.906C109.906 186.524 109.816 186.142 109.739 185.761C109.434 184.319 109.281 182.85 109.284 181.378C109.286 182.664 109.173 183.948 108.946 185.215C108.845 185.783 108.717 186.333 108.557 186.891C107.316 191.572 104.529 195.716 100.632 198.675C96.7359 201.633 91.9511 203.238 87.0267 203.238C82.1024 203.238 77.3175 201.633 73.4213 198.675C69.5248 195.716 66.7375 191.572 65.4961 186.891C65.2656 186.025 65.0931 185.147 64.9793 184.26C64.851 183.304 64.7877 182.342 64.7889 181.378C64.7842 182.366 64.717 183.353 64.5868 184.333C64.4652 185.194 64.2927 186.048 64.07 186.891C62.8616 191.415 60.2103 195.44 56.5046 198.377C52.7984 201.314 48.2327 203.007 43.4758 203.21C43.1611 203.21 42.8463 203.233 42.5316 203.233C36.6405 203.227 30.9925 200.925 26.8276 196.831C22.6627 192.738 20.3211 187.189 20.317 181.401V181.367H20.2665V160.417C20.265 158.022 20.7439 155.65 21.6761 153.437C22.6082 151.225 23.9751 149.214 25.6986 147.521C27.4222 145.828 29.4687 144.485 31.7209 143.569C33.9732 142.653 36.3871 142.183 38.8246 142.184H127.617C128.75 142.184 129.837 141.742 130.639 140.954C131.441 140.167 131.891 139.099 131.891 137.985C131.891 136.871 131.441 135.803 130.639 135.016C129.837 134.228 128.75 133.786 127.617 133.786H91.0912C89.083 133.785 87.1569 133.002 85.7343 131.609C84.3122 130.216 83.5098 128.326 83.5024 126.353V105.006C83.5067 103.035 84.3052 101.146 85.7239 99.7523C87.1425 98.3585 89.0656 97.5736 91.0717 97.5698H154.712Z" stroke="#CCDDE2" stroke-width="4.46" stroke-miterlimit="10"/>
<path d="M265.765 359L42.1857 359.455C40.1815 359.45 38.2607 358.665 36.8432 357.273C35.4256 355.881 34.6264 353.995 34.6202 352.026V201.817C37.1534 202.768 39.8427 203.255 42.5549 203.252C42.8696 203.252 43.1805 203.252 43.4952 203.229C49.288 203.002 54.7595 200.553 58.7349 196.407" stroke="#CCDDE2" stroke-width="4.46" stroke-miterlimit="10"/>
<path d="M112.602 192.876C114.155 195.344 116.191 197.484 118.592 199.172C120.994 200.86 123.712 202.063 126.591 202.71" stroke="#CCDDE2" stroke-width="4.46" stroke-miterlimit="10"/>
<path d="M140 328.971H96.3291" stroke="#CCDDE2" stroke-width="4.46" stroke-miterlimit="10"/>
<path d="M49.2266 328.742C47.5915 328.337 46.1406 327.408 45.1035 326.102C44.066 324.796 43.5014 323.188 43.4991 321.531V203.236C49.2908 202.998 54.7579 200.546 58.7349 196.403" stroke="#CCDDE2" stroke-width="4.46" stroke-miterlimit="10"/>
<path d="M112.602 192.876C114.155 195.344 116.191 197.484 118.592 199.172C120.994 200.86 123.712 202.063 126.591 202.71" stroke="#CCDDE2" stroke-width="4.46" stroke-miterlimit="10"/>
<path d="M70.0035 280.061C68.4162 278.669 67.1459 276.964 66.2755 275.056C65.4051 273.148 64.954 271.082 64.9521 268.991V232.725C64.9653 228.781 66.5662 225.002 69.4055 222.212C72.2443 219.423 76.0912 217.85 80.1063 217.837H115.008C119.023 217.85 122.87 219.423 125.708 222.212C128.548 225.002 130.149 228.781 130.162 232.725V268.991C130.149 272.935 128.548 276.715 125.708 279.504C122.87 282.293 119.023 283.866 115.008 283.879H93.951" stroke="#CCDDE2" stroke-width="4.46" stroke-miterlimit="10"/>
<path d="M224.332 237.498C225.435 234.891 226.5 232.829 227.13 231.669C227.284 231.386 227.32 231.054 227.228 230.746C227.137 230.437 226.925 230.177 226.64 230.02L219.964 227.256C219.705 227.112 219.411 227.037 219.113 227.039C218.815 227.041 218.523 227.12 218.265 227.267C218.008 227.415 217.795 227.626 217.646 227.88C217.498 228.133 217.419 228.421 217.419 228.714C217.419 234.44 215.748 239.834 209.92 239.834C204.091 239.834 202.416 234.44 202.416 228.714V228.466C202.418 228.184 202.347 227.906 202.209 227.658C202.072 227.41 201.873 227.2 201.631 227.048C201.39 226.895 201.112 226.806 200.826 226.787C200.539 226.768 200.252 226.82 199.992 226.939L193.18 229.424C193.012 229.5 192.863 229.612 192.744 229.751C192.625 229.891 192.539 230.054 192.492 230.23C192.445 230.406 192.438 230.59 192.473 230.769C192.507 230.948 192.582 231.117 192.691 231.264L192.784 231.39C196.439 236.405 198.681 242.279 199.283 248.419C199.886 254.559 198.827 260.746 196.215 266.354L193.81 271.546C193.64 271.913 193.567 272.316 193.597 272.718C193.627 273.12 193.759 273.508 193.981 273.847C194.203 274.186 194.509 274.465 194.869 274.658C195.229 274.85 195.634 274.951 196.044 274.951H225.672C226.089 274.951 226.499 274.846 226.864 274.646C227.228 274.447 227.534 274.16 227.754 273.812C227.974 273.464 228.1 273.066 228.12 272.657C228.139 272.248 228.053 271.841 227.868 271.473L225.354 266.488C223.085 262.008 221.821 257.102 221.644 252.102C221.468 247.101 222.384 242.121 224.332 237.498Z" stroke="#CCDDE2" stroke-width="4.46" stroke-miterlimit="10"/>
<path d="M199.37 254.034H221.779" stroke="#CCDDE2" stroke-width="4.46" stroke-miterlimit="10"/>
<path d="M204.421 254.039C204.526 257.787 204.46 267.438 201.313 274.935" stroke="#CCDDE2" stroke-width="4.46" stroke-miterlimit="10"/>
<path d="M219.809 274.935C216.665 267.438 216.603 257.787 216.7 254.039" stroke="#CCDDE2" stroke-width="4.46" stroke-miterlimit="10"/>
<path d="M210.576 274.935V254.039" stroke="#CCDDE2" stroke-width="4.46" stroke-miterlimit="10"/>
<path d="M118.722 244.392L111.476 248.511L109.474 246.083L111.11 271.565C111.135 271.998 111.069 272.432 110.917 272.839C110.764 273.246 110.529 273.619 110.226 273.934C109.922 274.249 109.556 274.5 109.15 274.672C108.745 274.843 108.308 274.932 107.866 274.932H86.1524C85.7083 274.931 85.2688 274.842 84.8612 274.668C84.454 274.494 84.0868 274.241 83.7833 273.922C83.4795 273.604 83.2455 273.227 83.0956 272.817C82.9456 272.406 82.883 271.969 82.9118 271.534L84.8546 245.323L82.8729 247.748L76.3954 243.628C76.3954 243.579 76.3954 243.533 76.3954 243.487C76.6713 237.944 82.3095 230.638 87.9593 230.638H91.9732C92.0894 230.859 92.192 231.087 92.2802 231.321C94.0637 236.07 101.606 235.902 103.121 231.142C103.176 230.966 103.234 230.794 103.296 230.638H105.834C112.163 230.638 117.677 238.078 118.687 244.213C118.707 244.281 118.715 244.339 118.722 244.392Z" stroke="#CCDDE2" stroke-width="4.46" stroke-miterlimit="10"/>
<path d="M102.092 122.088C98.8509 122.088 97.0674 119.698 97.0674 116.851C97.0674 113.865 99.053 111.487 102.263 111.487C105.628 111.487 107.333 113.942 107.333 116.683C107.333 119.989 105.317 122.088 102.107 122.088H102.092ZM102.231 119.912C103.58 119.912 104.369 118.63 104.369 116.774C104.369 115.007 103.564 113.667 102.2 113.667C100.837 113.667 100.028 115.007 100.028 116.79C100.028 118.572 100.852 119.912 102.2 119.912H102.231Z" fill="#A0A0A0"/>
<path d="M108.818 120.772V113.671C108.818 113.406 108.871 113.143 108.974 112.899C109.078 112.654 109.229 112.432 109.42 112.244C109.611 112.057 109.838 111.909 110.087 111.808C110.336 111.707 110.604 111.655 110.873 111.655C111.25 111.655 111.619 111.757 111.941 111.95C112.262 112.142 112.524 112.418 112.696 112.747L113.78 114.809C114.41 115.97 114.959 117.171 115.423 118.405H115.466C115.313 116.972 115.242 115.532 115.252 114.091V112.805C115.252 112.501 115.375 112.209 115.594 111.995C115.812 111.78 116.109 111.659 116.418 111.659H116.632C116.941 111.659 117.238 111.78 117.456 111.995C117.675 112.209 117.798 112.501 117.798 112.805V120.772C117.798 121.075 117.675 121.367 117.456 121.581C117.238 121.796 116.941 121.917 116.632 121.917H115.583C115.367 121.917 115.156 121.859 114.972 121.748C114.788 121.638 114.639 121.479 114.541 121.291L113.084 118.504C112.509 117.42 111.829 116.034 111.332 114.801H111.27C111.347 116.187 111.378 117.725 111.378 119.382V120.76C111.378 121.064 111.256 121.355 111.037 121.57C110.818 121.785 110.522 121.905 110.213 121.905H109.995C109.842 121.907 109.69 121.879 109.548 121.822C109.406 121.766 109.277 121.683 109.167 121.578C109.058 121.473 108.971 121.347 108.911 121.209C108.851 121.07 108.819 120.922 108.818 120.772Z" fill="#A0A0A0"/>
<path d="M120.906 111.655H121.369C121.678 111.655 121.974 111.776 122.193 111.991C122.411 112.206 122.534 112.497 122.534 112.801V118.47C122.534 118.773 122.657 119.065 122.876 119.279C123.094 119.494 123.391 119.615 123.7 119.615H125.375C125.684 119.615 125.98 119.735 126.199 119.95C126.418 120.165 126.54 120.456 126.54 120.76C126.54 121.064 126.418 121.355 126.199 121.57C125.98 121.785 125.684 121.905 125.375 121.905H120.906C120.597 121.905 120.3 121.785 120.082 121.57C119.863 121.355 119.74 121.064 119.74 120.76V112.805C119.74 112.654 119.77 112.504 119.828 112.365C119.887 112.226 119.972 112.099 120.08 111.992C120.189 111.886 120.317 111.801 120.459 111.743C120.601 111.685 120.753 111.655 120.906 111.655Z" fill="#A0A0A0"/>
<path d="M130.745 113.034V120.542C130.745 120.909 130.596 121.261 130.333 121.52C130.069 121.779 129.711 121.924 129.338 121.924C128.966 121.923 128.609 121.777 128.346 121.518C128.083 121.259 127.935 120.908 127.935 120.542V113.034C127.935 112.853 127.971 112.674 128.042 112.506C128.113 112.339 128.216 112.187 128.346 112.059C128.476 111.931 128.631 111.83 128.801 111.76C128.971 111.691 129.154 111.655 129.338 111.655C129.71 111.655 130.067 111.801 130.331 112.059C130.595 112.317 130.744 112.668 130.745 113.034Z" fill="#A0A0A0"/>
<path d="M132.664 120.665V113.453C132.664 113.216 132.712 112.982 132.805 112.763C132.897 112.544 133.033 112.345 133.204 112.178C133.375 112.011 133.579 111.879 133.802 111.789C134.025 111.699 134.265 111.654 134.506 111.655H134.867C135.203 111.655 135.532 111.746 135.819 111.918C136.105 112.09 136.338 112.336 136.492 112.629L137.638 114.809C138.266 115.97 138.815 117.172 139.282 118.405H139.328C139.174 116.972 139.101 115.532 139.111 114.091V112.911C139.111 112.746 139.144 112.583 139.208 112.43C139.273 112.277 139.367 112.139 139.486 112.022C139.605 111.905 139.747 111.813 139.903 111.75C140.058 111.687 140.225 111.655 140.393 111.655C140.561 111.655 140.727 111.688 140.882 111.751C141.037 111.814 141.178 111.907 141.297 112.023C141.416 112.14 141.51 112.278 141.574 112.431C141.638 112.583 141.671 112.746 141.671 112.911V120.126C141.671 120.603 141.479 121.06 141.135 121.398C140.792 121.735 140.326 121.924 139.841 121.924C139.504 121.924 139.174 121.833 138.887 121.661C138.6 121.488 138.367 121.241 138.213 120.947L136.942 118.512C136.367 117.427 135.683 116.042 135.19 114.809H135.128C135.206 116.194 135.237 117.733 135.237 119.39V120.661C135.237 120.995 135.101 121.315 134.861 121.552C134.62 121.788 134.294 121.921 133.954 121.921C133.786 121.922 133.618 121.89 133.462 121.827C133.306 121.765 133.164 121.672 133.044 121.556C132.924 121.439 132.829 121.3 132.764 121.148C132.698 120.994 132.665 120.83 132.664 120.665Z" fill="#A0A0A0"/>
<path d="M149.023 117.779H147.364C147.238 117.779 147.112 117.804 146.996 117.852C146.879 117.899 146.773 117.969 146.684 118.057C146.595 118.145 146.524 118.249 146.476 118.364C146.428 118.479 146.404 118.602 146.404 118.726C146.404 118.976 146.505 119.216 146.685 119.393C146.865 119.569 147.109 119.669 147.364 119.669H149.474C149.774 119.669 150.061 119.786 150.273 119.994C150.486 120.203 150.605 120.485 150.605 120.78V120.81C150.605 120.957 150.576 121.101 150.519 121.236C150.463 121.372 150.38 121.495 150.275 121.598C150.17 121.702 150.045 121.784 149.907 121.84C149.77 121.896 149.623 121.925 149.474 121.925H144.558C144.432 121.925 144.307 121.9 144.19 121.853C144.073 121.805 143.967 121.735 143.877 121.648C143.787 121.56 143.717 121.455 143.668 121.341C143.62 121.226 143.595 121.102 143.595 120.978V112.45C143.595 112.199 143.696 111.958 143.877 111.781C144.058 111.603 144.303 111.503 144.558 111.503H149.272C149.42 111.503 149.567 111.532 149.705 111.588C149.842 111.644 149.966 111.726 150.071 111.829C150.176 111.932 150.259 112.054 150.317 112.189C150.373 112.324 150.402 112.468 150.402 112.614V112.649C150.401 112.943 150.282 113.224 150.07 113.432C149.858 113.639 149.571 113.756 149.272 113.756H147.329C147.087 113.756 146.854 113.85 146.683 114.018C146.512 114.187 146.416 114.415 146.416 114.653C146.416 114.891 146.512 115.119 146.683 115.287C146.854 115.455 147.087 115.55 147.329 115.55H149.035C149.184 115.55 149.331 115.579 149.468 115.635C149.606 115.691 149.731 115.773 149.836 115.876C149.941 115.98 150.024 116.103 150.08 116.238C150.137 116.373 150.166 116.518 150.165 116.665C150.166 116.812 150.137 116.957 150.08 117.093C150.022 117.229 149.938 117.353 149.832 117.456C149.725 117.56 149.599 117.642 149.46 117.698C149.321 117.753 149.173 117.781 149.023 117.779Z" fill="#A0A0A0"/>
<path d="M155.1 120.442C155.137 120.292 155.204 120.15 155.299 120.026C155.393 119.902 155.511 119.798 155.648 119.72C155.784 119.643 155.935 119.593 156.091 119.574C156.247 119.555 156.406 119.567 156.557 119.61C157.064 119.746 157.586 119.817 158.112 119.82C159.075 119.82 159.538 119.499 159.538 118.98C159.538 118.461 159.075 118.217 157.894 117.808C156.13 117.186 154.949 116.239 154.949 114.716C154.949 112.903 156.503 111.502 159.153 111.502C159.725 111.498 160.296 111.555 160.855 111.67C161.005 111.704 161.146 111.768 161.27 111.857C161.394 111.946 161.498 112.059 161.577 112.189C161.655 112.318 161.706 112.463 161.726 112.612C161.746 112.762 161.736 112.914 161.694 113.059C161.622 113.343 161.44 113.588 161.187 113.74C160.933 113.893 160.628 113.942 160.338 113.876C159.939 113.786 159.531 113.742 159.122 113.743C158.267 113.743 157.805 114.044 157.805 114.506C157.805 115.025 158.36 115.224 159.678 115.709C161.554 116.396 162.398 117.373 162.398 118.805C162.398 120.568 160.999 122.076 157.945 122.076C157.258 122.074 156.574 121.988 155.909 121.82C155.625 121.738 155.384 121.554 155.234 121.304C155.084 121.053 155.036 120.757 155.1 120.473V120.442Z" fill="#A0A0A0"/>
<path d="M164.776 113.973H164.465C164.156 113.973 163.859 113.852 163.641 113.637C163.422 113.422 163.299 113.131 163.299 112.827C163.299 112.524 163.422 112.233 163.641 112.018C163.859 111.803 164.156 111.682 164.465 111.682H170.293C170.603 111.682 170.899 111.803 171.118 112.018C171.336 112.233 171.459 112.524 171.459 112.827C171.459 113.131 171.336 113.422 171.118 113.637C170.899 113.852 170.603 113.973 170.293 113.973H169.936C169.627 113.973 169.33 114.093 169.112 114.308C168.893 114.523 168.77 114.814 168.77 115.118V120.752C168.77 121.056 168.647 121.348 168.429 121.562C168.21 121.777 167.914 121.898 167.604 121.898H167.146C166.837 121.898 166.54 121.777 166.322 121.562C166.103 121.348 165.98 121.056 165.98 120.752V115.129C165.982 114.975 165.952 114.822 165.891 114.678C165.831 114.536 165.742 114.406 165.629 114.298C165.517 114.19 165.383 114.106 165.237 114.05C165.09 113.994 164.933 113.968 164.776 113.973Z" fill="#A0A0A0"/>
<path d="M176.884 122.088C173.643 122.088 171.859 119.698 171.859 116.851C171.859 113.865 173.845 111.487 177.055 111.487C180.42 111.487 182.125 113.942 182.125 116.683C182.125 119.989 180.109 122.088 176.899 122.088H176.884ZM177.023 119.912C178.372 119.912 179.164 118.63 179.164 116.774C179.164 115.007 178.356 113.667 176.992 113.667C175.628 113.667 174.82 115.007 174.82 116.79C174.82 118.572 175.644 119.912 176.992 119.912H177.023Z" fill="#A0A0A0"/>
<path d="M183.614 112.687C183.612 112.441 183.704 112.204 183.87 112.022C184.037 111.839 184.267 111.723 184.515 111.698C185.211 111.629 186.069 111.579 186.994 111.579C188.591 111.579 189.737 111.793 190.53 112.385C190.87 112.648 191.14 112.987 191.318 113.375C191.496 113.762 191.576 114.186 191.552 114.611C191.535 115.151 191.357 115.674 191.04 116.116C190.723 116.558 190.281 116.898 189.769 117.096V117.141C190.452 117.443 190.841 118.1 191.101 118.982C191.214 119.363 191.331 119.795 191.439 120.215C191.493 120.416 191.5 120.627 191.458 120.831C191.416 121.036 191.327 121.228 191.197 121.393C191.068 121.559 190.901 121.692 190.711 121.785C190.52 121.877 190.311 121.924 190.099 121.925H190.072C189.773 121.926 189.482 121.832 189.243 121.658C189.003 121.483 188.827 121.236 188.743 120.955C188.626 120.573 188.498 120.111 188.354 119.546C188.074 118.329 187.686 118.069 186.819 118.069H186.369V120.558C186.37 120.914 186.229 121.256 185.977 121.511C185.725 121.766 185.382 121.915 185.02 121.925C184.838 121.925 184.657 121.889 184.488 121.821C184.32 121.752 184.167 121.651 184.038 121.524C183.909 121.397 183.807 121.246 183.738 121.081C183.668 120.915 183.633 120.737 183.633 120.558L183.614 112.687ZM186.388 116.088H187.118C188.171 116.088 188.778 115.588 188.778 114.824C188.778 114.061 188.265 113.622 187.336 113.622C187.019 113.611 186.701 113.632 186.388 113.683V116.088Z" fill="#A0A0A0"/>
<path d="M198.62 117.779H196.949C196.823 117.779 196.698 117.803 196.581 117.851C196.464 117.898 196.358 117.968 196.268 118.056C196.178 118.144 196.107 118.248 196.059 118.363C196.011 118.478 195.986 118.601 195.986 118.725C195.987 118.976 196.089 119.216 196.269 119.392C196.45 119.569 196.694 119.668 196.949 119.668H199.055C199.353 119.671 199.638 119.79 199.847 119.998C200.057 120.206 200.174 120.486 200.174 120.779V120.81C200.174 120.956 200.145 121.101 200.088 121.236C200.031 121.372 199.948 121.495 199.842 121.598C199.737 121.701 199.612 121.784 199.474 121.84C199.336 121.895 199.189 121.924 199.04 121.924H194.14C194.014 121.924 193.889 121.9 193.772 121.852C193.655 121.805 193.549 121.735 193.46 121.647C193.371 121.559 193.3 121.454 193.252 121.34C193.204 121.225 193.18 121.102 193.18 120.978V112.736C193.18 112.582 193.21 112.429 193.27 112.286C193.33 112.143 193.417 112.014 193.528 111.905C193.639 111.796 193.771 111.709 193.916 111.65C194.061 111.591 194.216 111.56 194.373 111.56H198.838C199.139 111.56 199.427 111.678 199.64 111.886C199.853 112.096 199.972 112.379 199.972 112.675V112.705C199.972 112.851 199.943 112.996 199.886 113.131C199.829 113.266 199.745 113.389 199.64 113.492C199.534 113.595 199.409 113.677 199.272 113.733C199.134 113.788 198.987 113.816 198.838 113.816H196.872C196.637 113.816 196.411 113.908 196.245 114.071C196.079 114.234 195.986 114.456 195.986 114.686C195.986 114.801 196.009 114.914 196.053 115.019C196.098 115.124 196.163 115.22 196.245 115.301C196.328 115.381 196.426 115.445 196.533 115.488C196.64 115.532 196.755 115.553 196.872 115.553H198.62C198.921 115.554 199.208 115.672 199.42 115.881C199.632 116.09 199.751 116.373 199.751 116.668C199.751 116.962 199.632 117.245 199.42 117.453C199.208 117.661 198.92 117.779 198.62 117.779Z" fill="#A0A0A0"/>
<path d="M72.5719 298.379C73.7881 297.409 75.2025 296.516 76.1817 295.443C78.925 292.427 77.8681 288.572 79.6283 285.273C81.7694 281.238 88.5072 278.421 95.1245 278.784C94.4978 280.687 94.068 282.648 93.8422 284.636C93.648 286.403 94.1181 288.373 93.6013 290.083C92.7581 292.84 88.2624 294.508 87.7145 297.337C87.2327 299.837 90.2091 302.173 89.7156 304.716C89.1949 307.445 84.9246 308.953 83.3547 311.366C82.0725 313.328 82.6747 315.565 82.0103 317.661C81.2059 320.18 78.416 322.41 74.7596 323.456L74.3982 323.559C73.0545 322.428 71.9016 321.096 70.9827 319.611" stroke="#CCDDE2" stroke-width="4.46" stroke-miterlimit="10"/>
<path d="M91.0834 281.96C81.2137 291.851 76.5703 312.706 74.7634 323.463C74.6158 324.372 74.4837 325.204 74.3749 325.952" stroke="#CCDDE2" stroke-width="4.46" stroke-miterlimit="10"/>
<path d="M91.9926 332.013L87.4503 356.956C87.324 357.657 86.9506 358.291 86.3957 358.748C85.8404 359.205 85.1394 359.454 84.4155 359.453H60.6778C59.9473 359.453 59.2405 359.198 58.6833 358.734C58.1264 358.27 57.755 357.626 57.6353 356.918L53.4504 332.013H91.9926Z" stroke="#CCDDE2" stroke-width="4.46" stroke-miterlimit="10"/>
<path d="M96.3097 329.231C96.2463 329.99 95.8951 330.697 95.3254 331.212C94.7562 331.728 94.0105 332.014 93.2361 332.014H52.2925C51.5254 332.014 50.7864 331.733 50.2187 331.226C49.6514 330.719 49.2962 330.024 49.2228 329.273C49.182 328.853 49.2313 328.429 49.3669 328.029C49.5029 327.628 49.7225 327.26 50.0112 326.948C50.3003 326.636 50.6523 326.386 51.0452 326.216C51.438 326.045 51.8627 325.956 52.2925 325.956H93.2361C93.662 325.956 94.0832 326.043 94.4733 326.211C94.8634 326.379 95.2139 326.625 95.5026 326.933C95.7917 327.24 96.0124 327.603 96.1511 327.999C96.2899 328.395 96.3439 328.814 96.3097 329.231Z" stroke="#CCDDE2" stroke-width="4.46" stroke-miterlimit="10"/>
<path d="M61.1868 292.572C64.8122 303.364 66.8988 315.358 67.9635 322.993C68.0754 323.037 68.1892 323.076 68.3054 323.107C69.3534 322.061 70.2549 320.883 70.9865 319.603C71.8884 318.121 72.622 316.547 73.1742 314.908C73.9513 312.464 72.5836 309.945 72.2572 307.464C71.8686 304.452 73.0343 301.283 72.5836 298.359C72.5836 298.271 72.5525 298.172 72.5253 298.069C72.5253 298.027 72.5253 297.966 72.4942 297.908C72.3438 297.162 72.0582 296.448 71.651 295.801C70.4231 293.824 68.0373 292.411 66.5996 290.522C63.9651 287.033 64.9715 282.57 63.2851 278.745C62.7811 277.621 62.0685 276.6 61.1829 275.733C58.222 272.74 53.2794 270.892 48.3951 271.224C49.0051 273.444 49.4209 275.711 49.6385 278C49.8134 280.054 49.3704 282.337 49.86 284.314C50.6721 287.514 54.9969 289.445 55.5137 292.713C55.9877 295.607 53.1317 298.328 53.5903 301.264C54.1071 304.432 58.1909 306.181 59.7025 308.971C60.9304 311.239 60.3553 313.858 61.0042 316.27C61.0512 316.464 61.111 316.654 61.1829 316.839C61.1829 316.839 62.3836 321.359 67.9596 322.989" stroke="#CCDDE2" stroke-width="4.46" stroke-miterlimit="10"/>
<path d="M68.3482 325.944C68.2471 325.059 68.115 324.085 67.9596 323.009C66.8949 315.374 64.8083 303.379 61.1829 292.587C58.8865 285.739 55.9722 279.371 52.2886 274.92" stroke="#CCDDE2" stroke-width="4.46" stroke-miterlimit="10"/>
<path d="M66.6074 290.533C66.6074 290.533 67.2563 280.577 72.7235 277.553C78.1906 274.53 78.0741 291.499 78.0741 291.499" stroke="#CCDDE2" stroke-width="4.46" stroke-miterlimit="10"/>
<path d="M72.5719 298.378C72.5719 298.378 71.4528 292.682 73.4112 287.082" stroke="#CCDDE2" stroke-width="4.46" stroke-miterlimit="10"/>
<path d="M133.978 152.384H40.6431C37.3168 152.384 34.6202 155.033 34.6202 158.301V160.588C34.6202 163.856 37.3168 166.505 40.6431 166.505H133.978C137.304 166.505 140 163.856 140 160.588V158.301C140 155.033 137.304 152.384 133.978 152.384Z" stroke="#CCDDE2" stroke-width="4.46" stroke-miterlimit="10"/>
<path d="M194 78.1111C194 78.1111 178.768 78.2714 169.034 92.6441C159.301 107.017 155.613 124.375 156.235 145.439L155.151 189.577C155.151 189.577 171.304 191.657 176.751 184.412C176.751 184.412 177.964 178.411 187.052 173.284L194 78.1111Z" fill="black"/>
<path d="M183.314 281.657L188.649 286.238V288.868L187.095 289.391C187.095 289.391 179.712 290.136 180.299 288.819C180.886 287.502 183.314 281.657 183.314 281.657Z" fill="#CBA135"/>
<path d="M163.159 326.975L148.782 359H112.257C111.572 359.018 110.889 358.902 110.251 358.657C109.612 358.412 109.03 358.044 108.539 357.574C108.048 357.105 107.657 356.543 107.391 355.923C107.124 355.303 106.986 354.636 106.986 353.963C106.986 353.289 107.124 352.623 107.391 352.002C107.657 351.382 108.048 350.82 108.539 350.351C109.03 349.881 109.612 349.513 110.251 349.268C110.889 349.024 111.572 348.907 112.257 348.926C117.637 348.927 122.85 347.089 127.001 343.727C131.152 340.364 133.983 335.688 135.007 330.499L135.707 326.975C135.75 326.769 163.159 326.975 163.159 326.975Z" fill="black"/>
<path d="M262.112 325.623L243.582 356.525C243.256 357.126 242.81 357.656 242.271 358.083C241.731 358.51 241.109 358.825 240.442 359.01C239.776 359.194 239.077 359.244 238.39 359.156C237.703 359.068 237.042 358.844 236.445 358.498C235.848 358.152 235.33 357.691 234.919 357.142C234.509 356.594 234.216 355.969 234.059 355.306C233.901 354.644 233.881 353.956 234.001 353.286C234.121 352.616 234.379 351.976 234.757 351.406C237.489 346.854 238.525 341.511 237.688 336.291C236.85 331.072 234.192 326.3 230.168 322.794C228.882 321.676 227.837 320.767 227.246 320.26L246.399 304.077L262.112 325.623Z" fill="black"/>
<path d="M265.901 300.379H188.576V195.983H188.556C187.608 180.148 181.065 178.041 181.065 178.041L184.562 175.327C174.634 130.151 183.396 97.0693 192.722 78.1119C195.456 72.472 198.755 67.1127 202.568 62.1129C202.611 62.0557 202.657 62.0099 202.692 61.9564C203.058 61.4861 203.564 61.1399 204.139 60.9662C204.715 60.7925 205.332 60.8005 205.902 60.9887C206.473 61.1769 206.97 61.5361 207.322 62.0156C207.675 62.4955 207.866 63.0711 207.868 63.6628L207.915 76.1077C223.772 75.4626 233.079 93.1946 236.902 105.983C240.963 119.588 240.862 134.473 237.893 148.158C236.747 153.513 234.944 158.711 232.523 163.638L265.901 300.379Z" fill="#CBA135"/>
<path d="M176.751 63.4945L159.526 84.0629L165.957 84.0286L155.388 95.3664C152.423 96.2864 135.718 289.384 135.718 289.384H143.152L162.845 189.822C160.282 190.129 157.686 190.043 155.151 189.566L156.266 134.904C157.043 117.363 164.216 89.5257 182.118 80.8028L182.184 80.7685C182.615 72.1907 184.88 66.5714 184.88 66.5714C180.26 67.583 176.751 63.4945 176.751 63.4945Z" fill="#CBA135"/>
<path d="M162.844 189.822L135.718 326.976L135.019 330.499C133.992 335.685 131.159 340.359 127.009 343.718C122.858 347.077 117.646 348.913 112.268 348.911C111.583 348.892 110.901 349.009 110.262 349.253C109.624 349.498 109.042 349.866 108.55 350.336C108.059 350.805 107.669 351.367 107.402 351.987C107.135 352.608 106.998 353.274 106.998 353.948C106.998 354.621 107.135 355.288 107.402 355.908C107.669 356.528 108.059 357.09 108.55 357.559C109.042 358.029 109.624 358.397 110.262 358.642C110.901 358.887 111.583 359.003 112.268 358.985H148.794L163.171 326.96L188.56 270.435" stroke="black" stroke-width="4.46" stroke-miterlimit="10"/>
<path d="M188.556 195.987V300.375H265.905L232.519 163.661" stroke="black" stroke-width="4.46" stroke-miterlimit="10"/>
<path d="M207.903 76.1081L192.904 89.0874L207.903 88.7782L208.334 141.119C208.368 145.574 207.409 149.983 205.525 154.035C203.641 158.087 200.877 161.686 197.427 164.577L185.133 174.885C170.954 112.057 192.294 75.3522 202.685 61.953C203.049 61.4815 203.555 61.1345 204.131 60.9604C204.707 60.7864 205.325 60.7944 205.896 60.9833C206.467 61.1723 206.963 61.5323 207.315 62.0133C207.667 62.4939 207.856 63.0711 207.856 63.6632L207.903 76.1081ZM207.903 76.1081C223.764 75.4629 233.071 93.195 236.894 105.983C240.955 119.589 240.85 134.473 237.885 148.159C236.071 156.5 232.752 164.669 227.732 171.67C223.042 178.187 216.829 183.405 210.907 188.826C208.808 190.735 206.632 192.559 204.387 194.312L188.548 206.379" stroke="black" stroke-width="4.46" stroke-miterlimit="10"/>
<path d="M204.34 53.5233C203.741 54.3551 202.946 55.0323 202.023 55.4973C201.1 55.9627 200.077 56.202 199.04 56.1955C198.143 56.2077 197.245 56.1593 196.355 56.0505C195.317 55.9168 194.754 55.6382 195.465 55.1304C195.69 54.9655 195.9 54.7831 196.094 54.5846C197.349 53.313 198.227 51.7291 198.632 50.0036C199.075 48.0758 198.632 46.1862 197.101 45.1516C196.735 44.9054 196.331 44.7187 195.904 44.5981C195.215 44.3897 194.502 44.2614 193.782 44.2164C193.421 44.1935 193.048 44.182 192.679 44.182C192.29 41.8572 191.404 38.5856 189.598 37.2228C189.157 36.8898 188.632 36.6809 188.08 36.6183C187.527 36.5558 186.968 36.642 186.462 36.8678C183.742 37.887 179.705 38.6734 177.552 38.265C177.419 38.1317 177.332 37.9608 177.303 37.7763C177.603 37.0394 177.95 36.3216 178.341 35.6271C178.76 34.9136 179.227 34.2287 179.74 33.5771C183.598 28.7481 190.344 26.4767 196.448 27.6066C197.422 27.782 198.375 28.0557 199.292 28.4236C202.098 29.8971 204.064 32.241 205.339 35.0736C208.84 44.5599 206.504 50.477 204.34 53.5233Z" fill="black"/>
<path d="M204.363 300.379L227.227 320.28C227.825 320.787 228.863 321.696 230.149 322.814C234.171 326.317 236.83 331.083 237.671 336.299C238.512 341.514 237.481 346.855 234.757 351.407C234.416 351.978 234.192 352.608 234.099 353.264C234.006 353.919 234.045 354.586 234.214 355.227C234.383 355.867 234.679 356.469 235.085 356.997C235.491 357.525 235.999 357.97 236.58 358.305C237.16 358.641 237.803 358.86 238.47 358.952C239.137 359.043 239.816 359.005 240.468 358.839C241.12 358.672 241.732 358.382 242.27 357.983C242.807 357.584 243.26 357.085 243.601 356.515L262.112 325.624L246.379 304.09L243.659 300.391" stroke="black" stroke-width="4.46" stroke-miterlimit="10"/>
<path d="M188.548 286.64L183.314 282.082" stroke="black" stroke-width="4.46" stroke-miterlimit="10"/>
<path d="M176.755 63.4899L159.522 84.0659L165.953 84.0278L155.392 95.3618C155.217 95.4114 155.003 96.1787 154.712 97.5682C152.613 108.143 147.966 154.906 143.797 199.609C139.503 245.586 135.711 289.384 135.711 289.384H143.152" stroke="black" stroke-width="4.46" stroke-miterlimit="10"/>
<path d="M188.548 289.385H180.047" stroke="black" stroke-width="4.46" stroke-miterlimit="10"/>
<path d="M188.548 195.982C182.145 195.837 179.11 193.211 177.754 190.199C175.85 185.931 177.338 180.923 181.061 178.04L185.145 174.883" stroke="black" stroke-width="4.46" stroke-miterlimit="10"/>
<path d="M176.751 185.267C176.751 185.267 165.957 191.695 155.151 189.565L156.266 134.903C157.202 114.236 166.967 79.2754 192.729 78.1111" stroke="black" stroke-width="4.46" stroke-miterlimit="10"/>
<path d="M189.846 64.6699C189.846 64.6699 174.766 73.9577 173.915 52.6258C173.658 46.098 173.95 38.3638 178.259 32.9889C182.118 28.1561 188.863 25.8847 194.968 27.0146C200.019 27.9575 203.236 31.0039 205.051 35.0313" stroke="black" stroke-width="4.46" stroke-miterlimit="10"/>
<path d="M188.548 196.139C188.555 196.087 188.555 196.034 188.548 195.982C187.604 180.147 181.061 178.04 181.061 178.04" stroke="black" stroke-width="2.97" stroke-miterlimit="10"/>
<path d="M184.348 66.6855L182.094 80.8024" stroke="black" stroke-width="4.46" stroke-miterlimit="10"/>
<path d="M176.86 35.0396C172.8 39.6511 181.496 38.5975 186.186 36.8338C190.235 35.3068 191.824 40.7925 192.403 44.1939" stroke="black" stroke-width="4.46" stroke-miterlimit="10"/>
<path d="M202.56 54.993V62.1126" stroke="black" stroke-width="4.46" stroke-miterlimit="10"/>
<path d="M179.009 54.0115C180.322 54.0115 181.387 51.6237 181.387 48.6786C181.387 45.733 180.322 43.3456 179.009 43.3456C177.696 43.3456 176.631 45.733 176.631 48.6786C176.631 51.6237 177.696 54.0115 179.009 54.0115Z" stroke="black" stroke-width="2.97" stroke-miterlimit="10"/>
<path d="M172.221 54.0115C173.534 54.0115 174.599 51.6237 174.599 48.6786C174.599 45.733 173.534 43.3456 172.221 43.3456C170.907 43.3456 169.843 45.733 169.843 48.6786C169.843 51.6237 170.907 54.0115 172.221 54.0115Z" stroke="black" stroke-width="2.97" stroke-miterlimit="10"/>
<path d="M179.009 54.0115C180.322 54.0115 181.387 51.6237 181.387 48.6786C181.387 45.733 180.322 43.3456 179.009 43.3456C177.696 43.3456 176.631 45.733 176.631 48.6786C176.631 51.6237 177.696 54.0115 179.009 54.0115Z" fill="black"/>
<path d="M172.221 54.0115C173.534 54.0115 174.599 51.6237 174.599 48.6786C174.599 45.733 173.534 43.3456 172.221 43.3456C170.907 43.3456 169.843 45.733 169.843 48.6786C169.843 51.6237 170.907 54.0115 172.221 54.0115Z" fill="black"/>
<path d="M181.154 46.3808C183.518 45.612 185.935 45.0085 188.385 44.5752C190.717 44.1934 193.328 43.8613 195.62 44.5523C198.115 45.3158 198.892 47.6062 198.34 49.9616C197.943 51.6993 197.071 53.2973 195.819 54.5845C195.622 54.7861 195.409 54.9712 195.181 55.1381C193.953 56.0237 196.514 56.2031 198.756 56.2031C199.794 56.2096 200.818 55.9699 201.741 55.5045C202.664 55.0396 203.46 54.3624 204.06 53.5309C206.224 50.477 208.56 44.5675 205.051 35.0469" stroke="black" stroke-width="4.46" stroke-miterlimit="10"/>
<path d="M194.692 44.3313C193.951 44.6894 193.337 45.2578 192.929 45.9633C192.521 46.6683 192.338 47.4776 192.403 48.2862" stroke="black" stroke-width="4.46" stroke-miterlimit="10"/>
<path d="M347.019 359.491H48.399" stroke="black" stroke-width="4.46" stroke-miterlimit="10"/>
<path d="M354.701 -140.341C351.01 -134.585 346.331 -129.557 340.324 -126.041C336.793 -123.979 332.908 -122.567 328.861 -121.876C319.714 -120.3 310.081 -122.289 301.614 -126.457C298.836 -127.821 296.183 -129.418 293.684 -131.229C291.766 -132.629 289.933 -134.136 288.193 -135.745C287.416 -136.474 286.658 -137.222 285.928 -138.001C283.834 -140.21 281.978 -142.625 280.391 -145.209C278.178 -148.751 276.617 -152.648 275.778 -156.722L354.701 -140.341ZM368.184 -24.8178V-189.025H62.3797V-25.5546L162.483 -25.0774L169.396 -25.0469L213.693 -24.8254L368.184 -24.8178ZM62.3875 30.0008H63.083L62.3875 29.1724V30.0008Z" stroke="#CCDDE2" stroke-width="5.77" stroke-miterlimit="10"/>
</g>
</svg>
