<svg width="466" height="460" viewBox="0 0 466 460" fill="none" xmlns="http://www.w3.org/2000/svg">
<path d="M68.0146 208.413C84.8342 184.903 110.041 174.247 110.041 174.247C110.864 173.905 107.358 141.696 107.286 139.412C106.223 101.786 112.463 62.6373 140.746 35.4683C176.103 1.5273 240.254 -5.50517 280.813 23.0898C280.302 22.7116 294.157 11.7898 295.328 11.0896C302.898 6.52107 311.44 3.80503 320.258 3.16276C355.748 0.607356 388.293 28.4921 401.607 62.2234C414.921 95.9547 411.864 172.811 387.44 194.977" stroke="#CCDDE2" stroke-width="5.05" stroke-miterlimit="10"/>
<path d="M52.8508 249.197C53.7252 239.938 56.1058 230.883 59.8986 222.391C60.2599 221.583 60.6381 220.793 61.0332 220.019" stroke="#CCDDE2" stroke-width="5.05" stroke-miterlimit="10"/>
<path d="M96.7117 347.037C92.6231 343.322 88.836 339.54 85.3658 335.737" stroke="#CCDDE2" stroke-width="5.05" stroke-miterlimit="10"/>
<path d="M437.418 236.538C437.449 239.093 437.418 241.7 437.296 244.311C436.57 260.466 433.11 277.163 424.462 290.768C422.888 293.279 421.132 295.67 419.209 297.924C400.81 295.496 398.065 276.729 376.789 266.119C351.301 253.378 309.566 257.942 309.566 257.942L330.127 238.976C329.028 181.857 287.094 185.363 287.094 185.363L284.963 190.581C286.582 185.855 288.219 181.448 289.875 177.36L289.967 177.145C309.388 128.909 329.509 122.93 345.163 115.964C348.903 115.075 352.732 114.619 356.576 114.604C396.598 114.389 420.088 155.148 430.36 187.959C432.916 196.137 436.846 213.626 437.372 233.292C437.383 234.345 437.418 235.444 437.418 236.538Z" fill="#2E2E2E"/>
<path d="M459.906 450.619C456.799 454.897 451.672 457.228 446.388 457.228H385.671C383.338 457.261 381.024 456.806 378.877 455.891C376.73 454.976 374.799 453.623 373.206 451.918C372.991 451.699 372.789 451.467 372.603 451.222C370.7 448.865 369.511 446.014 369.174 443.004C368.867 440.239 370.922 437.781 373.702 437.893C374.755 437.934 375.759 438.356 376.525 439.079C377.292 439.802 377.771 440.779 377.872 441.829C377.872 442.049 377.918 442.263 377.949 442.478C378.174 443.725 378.722 444.892 379.538 445.861C380.261 446.715 381.167 447.393 382.19 447.845C383.212 448.298 384.324 448.512 385.441 448.473H446.648C447.744 448.491 448.831 448.273 449.834 447.831C450.837 447.39 451.733 446.737 452.459 445.917C453.279 444.969 453.838 443.824 454.082 442.595C454.325 441.366 454.245 440.094 453.85 438.905L426.512 357.618C426.289 356.995 426.024 356.386 425.72 355.799C424.115 352.409 421.571 349.55 418.391 347.563C415.21 345.575 411.526 344.542 407.776 344.586C396.266 344.724 381.654 344.754 380.28 344.754C349.651 344.642 335.713 344.642 328.047 344.846C328.573 342.962 329.524 341.224 330.827 339.766C330.827 339.766 330.858 339.735 330.858 339.72C332.728 337.727 335.287 336.523 338.013 336.352C349.369 335.422 360.613 333.725 371.535 330.761C390.808 325.538 409.191 316.578 421.963 302.171C428.18 295.197 432.879 287.006 435.762 278.12C438 271.063 439.41 263.77 439.964 256.388C440.161 254.058 440.284 251.71 440.332 249.346V249.238C440.332 248.697 440.362 248.14 440.362 247.598C440.432 244.23 440.278 240.861 439.902 237.514C443.24 237.54 446.436 238.863 448.815 241.204C449.024 241.755 449.178 242.325 449.275 242.906C449.368 243.456 449.414 244.014 449.413 244.572V310.68C449.419 315.196 448.528 319.667 446.792 323.835C445.055 328.004 442.509 331.785 439.299 334.962C433.984 340.226 432.471 348.214 434.991 355.242L462.16 436.084C462.981 438.509 463.204 441.097 462.812 443.627C462.42 446.158 461.423 448.556 459.906 450.619Z" fill="#CBA135"/>
<path d="M85.3708 448.579V263.246H96.7117V448.655L85.3708 448.579Z" fill="#2E2E2E"/>
<path d="M309.572 257.916C317.693 257.052 327.086 256.03 336.107 256.235" stroke="black" stroke-width="5.05" stroke-miterlimit="10"/>
<path d="M265.332 266.103C250.951 269.731 236.957 274.97 225.018 283.679C204.984 298.275 195.826 325.506 204.013 349.097C204.013 349.128 236.211 442.006 236.211 442.006H227.737C225.911 442.006 224.103 442.367 222.417 443.068C220.731 443.77 219.201 444.799 217.914 446.095C215.395 448.599 214.153 452.775 214.153 456.608H290.421L261.438 361.803C260.715 359.466 260.553 356.991 260.964 354.58C261.375 352.169 262.347 349.888 263.803 347.922C265.259 345.957 267.158 344.361 269.345 343.266C271.532 342.17 273.946 341.604 276.392 341.615C292.905 342.08 308.243 342.714 324.945 341.988" stroke="black" stroke-width="5.05" stroke-miterlimit="10"/>
<path d="M437.536 245.082V244.98C436.795 225.048 435.793 205.381 430.34 187.943C420.067 155.132 396.578 114.373 356.555 114.588C352.712 114.603 348.882 115.059 345.143 115.947C318.761 122.218 300.439 149.249 289.946 177.129L289.854 177.344C288.852 180.018 287.926 182.686 287.074 185.347C286.496 187.138 285.784 188.882 284.943 190.565C281.728 197.042 276.633 202.398 270.325 205.932C264.016 209.465 256.788 211.012 249.586 210.37C201.136 205.964 137.281 203.45 117.17 237.493" stroke="black" stroke-width="5.05" stroke-miterlimit="10"/>
<path d="M358.252 208.009C351.199 216.524 343.773 224.747 336.097 232.699C320.381 248.993 306.822 266.298 282.433 267.453C262.976 268.388 244.455 260.921 226.056 255.744C206.374 250.209 196.413 245.783 178.071 240.192C172.788 238.588 167.308 237.728 161.788 237.636L143.322 237.779" stroke="black" stroke-width="5.05" stroke-miterlimit="10"/>
<path d="M286.231 443.204C287.989 442.415 289.895 442.011 291.822 442.018H300.316C300.316 442.018 282.561 407.505 268.363 384.532" stroke="black" stroke-width="5.05" stroke-miterlimit="10"/>
<path d="M297.893 342.066L357.281 457.228H290.105H277.92" stroke="black" stroke-width="5.05" stroke-miterlimit="10"/>
<path d="M459.906 450.62C456.799 454.897 451.672 457.228 446.388 457.228H385.671C380.637 457.228 375.726 455.143 372.588 451.207C370.685 448.85 369.495 445.999 369.158 442.989C368.852 440.224 370.906 437.766 373.687 437.878C374.74 437.919 375.743 438.34 376.51 439.063C377.276 439.787 377.755 440.764 377.857 441.814C377.981 443.298 378.563 444.707 379.523 445.846C380.256 446.686 381.165 447.356 382.184 447.807C383.204 448.258 384.311 448.48 385.426 448.458H446.648C447.744 448.476 448.831 448.258 449.834 447.816C450.837 447.375 451.733 446.722 452.459 445.902C453.279 444.954 453.838 443.809 454.082 442.58C454.325 441.351 454.245 440.079 453.85 438.89L426.512 357.618C425.127 353.77 422.58 350.448 419.223 348.113C415.866 345.778 411.865 344.545 407.776 344.586C396.266 344.724 381.654 344.754 380.28 344.754C346.175 344.647 332.749 344.647 325.635 344.908C325.524 344.907 325.415 344.884 325.312 344.841C325.21 344.798 325.118 344.735 325.04 344.657C324.962 344.578 324.9 344.485 324.859 344.382C324.817 344.28 324.796 344.17 324.797 344.059C324.786 340.904 325.944 337.856 328.047 335.504C328.055 335.498 328.062 335.49 328.068 335.481C328.073 335.473 328.076 335.462 328.078 335.453C329.95 333.465 332.507 332.262 335.233 332.09C346.589 331.16 357.833 329.463 368.755 326.499C388.028 321.275 406.411 312.316 419.183 297.909C425.4 290.934 430.099 282.744 432.982 273.857C435.214 266.803 436.618 259.514 437.168 252.136C437.369 249.799 437.491 247.451 437.536 245.094V244.981C437.536 244.445 437.567 243.888 437.567 243.346C437.636 239.978 437.482 236.609 437.107 233.262C442.667 233.231 448.274 237.274 449.245 242.916C449.337 243.467 449.383 244.024 449.383 244.583V310.681C449.388 315.196 448.497 319.667 446.76 323.835C445.024 328.004 442.478 331.786 439.268 334.962C433.953 340.226 432.44 348.214 434.96 355.242L462.129 436.084C462.954 438.507 463.183 441.093 462.796 443.624C462.409 446.154 461.418 448.554 459.906 450.62Z" stroke="black" stroke-width="5.05" stroke-miterlimit="10"/>
<path d="M168.202 249.203H10.0171C6.14166 249.203 3 252.345 3 256.22V256.225C3 260.101 6.14166 263.242 10.0171 263.242H168.202C172.077 263.242 175.219 260.101 175.219 256.225V256.22C175.219 252.345 172.077 249.203 168.202 249.203Z" stroke="black" stroke-width="5.05" stroke-miterlimit="10"/>
<path d="M123.405 449.459H59.4437C57.2732 449.459 55.5135 451.218 55.5135 453.389C55.5135 455.56 57.2732 457.319 59.4437 457.319H123.405C125.576 457.319 127.336 455.56 127.336 453.389C127.336 451.218 125.576 449.459 123.405 449.459Z" stroke="black" stroke-width="5.05" stroke-miterlimit="10"/>
<path d="M76.524 242.901V243.607C76.6262 248.457 81.1902 249.198 85.1255 249.229L161.205 249.178C164.537 249.178 167.287 246.622 167.292 243.484V243.351C167.231 240.285 164.553 237.786 161.261 237.78C161.261 237.78 118.698 237.627 85.7337 237.53C85.1408 239.257 83.6383 240.597 81.7626 241.69C80.1491 242.536 78.345 242.953 76.524 242.901Z" stroke="black" stroke-width="5.05" stroke-miterlimit="10"/>
<path d="M34.687 174.569C34.7028 175.377 34.9338 176.165 35.3565 176.854L70.621 236.083C71.0774 236.795 71.6764 237.405 72.3797 237.875C73.0834 238.344 73.8766 238.663 74.7097 238.812C76.1187 239.089 77.5789 238.931 78.8954 238.357C81.0573 237.396 82.3043 235.459 82.2634 233.497C82.2558 233.25 82.2302 233.003 82.1868 232.761C82.0784 232.219 81.8776 231.701 81.5939 231.227L46.3294 171.998C44.7961 169.407 41.0448 168.39 38.0294 169.724C35.8778 170.664 34.6308 172.601 34.687 174.569Z" stroke="black" stroke-width="5.05" stroke-miterlimit="10"/>
<path d="M130.044 237.78C130.044 237.78 134.291 233.737 144.058 227.318" stroke="black" stroke-width="5.05" stroke-miterlimit="10"/>
<path d="M164.675 171.339L149.195 188.506C148.117 189.702 146.62 190.439 145.015 190.564C143.409 190.688 141.817 190.191 140.568 189.176C139.877 188.615 139.314 187.915 138.914 187.121C138.515 186.327 138.288 185.457 138.249 184.569C138.21 183.68 138.361 182.794 138.69 181.968C139.019 181.142 139.52 180.395 140.159 179.777L142.99 177.038C143.097 176.884 143.22 176.746 143.343 176.603L145.387 174.35L162.968 155.245C165.102 152.9 167.789 151.127 170.784 150.088C173.78 149.048 176.988 148.777 180.115 149.296L180.376 149.342" stroke="black" stroke-width="5.05" stroke-miterlimit="10"/>
<path d="M186.478 175.985H170.992C169.23 175.985 167.54 175.284 166.294 174.038C165.048 172.792 164.348 171.103 164.348 169.341C164.348 167.578 165.048 165.889 166.294 164.643C167.54 163.397 169.23 162.697 170.992 162.697H192.969" stroke="black" stroke-width="5.05" stroke-miterlimit="10"/>
<path d="M174.605 175.985C174.391 178.699 173.353 180.707 171.825 182.118C167.89 185.695 160.673 185.302 155.655 182.844" stroke="black" stroke-width="5.05" stroke-miterlimit="10"/>
<path d="M145.413 174.339C140.961 168.978 141.876 161.69 145.336 156.053C159.621 132.727 186.851 147.093 204.754 157.146C215.412 163.159 225.599 169.969 235.23 177.518C243.755 184.162 251.646 192.115 261.888 196.111C268.021 198.508 275.263 199.081 281.365 196.316" stroke="black" stroke-width="5.05" stroke-miterlimit="10"/>
<path d="M171.825 182.078C182.628 190.051 192.943 198.665 202.715 207.872" stroke="black" stroke-width="5.05" stroke-miterlimit="10"/>
<path d="M303.265 56.6871C305.851 59.0483 309.822 59.1761 313.108 58.8592C317.309 58.4759 321.47 57.4589 325.584 56.6003L328.083 56.4725H328.119C328.598 56.4776 329.071 56.5762 329.512 56.7643C329.954 56.9519 330.353 57.2248 330.688 57.5667C331.024 57.9091 331.289 58.3139 331.468 58.7585C331.647 59.2032 331.737 59.6785 331.732 60.1574C331.789 65.5513 331.251 70.935 330.127 76.2104L334.916 78.8016C335.535 77.0741 334.839 74.5852 336.306 74.3961C337.247 72.6431 338.647 71.5034 340.845 72.8066C345.148 75.362 346.845 82.8698 342.7 86.3094L345.357 91.2771C346.284 93.0188 347.786 94.3844 349.607 95.1413C351.429 95.8982 353.457 95.9994 355.344 95.427L352.63 89.4269C358.998 90.5564 363.455 82.6091 361.513 77.759C360.189 74.4267 360.255 71.8356 362.024 68.5953C362.141 68.3755 360.94 68.0842 361.043 67.8594C361.104 65.4828 360.445 62.9376 359.3 61.7264C357.286 59.5594 353.233 59.171 354.061 55.8796C354.429 54.4476 354.565 52.9654 354.465 51.4894C354.249 49.5601 353.622 47.6993 352.627 46.0326C351.631 44.3655 350.291 42.9309 348.695 41.8249C345.342 39.6222 341.591 41.6205 338.008 41.5643C333.659 41.5183 330.541 37.8283 325.982 37.772C323.713 37.7363 321.894 38.6204 319.952 39.7193C318.326 40.6545 316.727 41.6307 315.173 42.6886C313.619 43.7466 312.239 44.6614 310.384 44.6665C307.967 44.6972 305.631 43.1639 303.198 43.8795C301.968 44.2106 300.887 44.9497 300.132 45.9749C299.36 49.7467 300.755 54.4128 303.265 56.6871Z" fill="#CBA135"/>
<path d="M334.937 78.2413C335.248 76.91 335.708 75.6174 336.306 74.3878C337.247 72.6348 338.652 71.4951 340.845 72.7983C345.148 75.3537 346.845 82.8615 342.7 86.3011L345.357 91.2688C346.284 93.01 347.786 94.3761 349.607 95.1331C351.429 95.89 353.457 95.9906 355.344 95.4187" stroke="black" stroke-width="5.05" stroke-linecap="round" stroke-linejoin="round"/>
<path d="M352.63 89.4185L355.334 95.4288C356.013 96.8649 357.961 101.281 360 105.87C361.451 109.156 362.964 112.54 364.089 115.029" stroke="black" stroke-width="5.05" stroke-linecap="round" stroke-linejoin="round"/>
<path d="M308.836 67.8356C308.836 67.8356 316.803 65.8526 320.284 71.8936" stroke="black" stroke-width="5.05" stroke-miterlimit="10"/>
<path d="M311.182 85.8717C309.035 86.4594 306.147 86.9858 304.491 85.1153L308.1 77.5206C308.976 75.6582 309.192 73.5531 308.713 71.5512C307.926 68.1832 305.958 63.0673 308.069 58.626" stroke="black" stroke-width="5.05" stroke-miterlimit="10"/>
<path d="M316.543 75.6929C317.148 74.6896 316.682 73.3 315.502 72.5891C314.322 71.8782 312.876 72.1148 312.271 73.1181C311.666 74.1213 312.132 75.5109 313.312 76.2219C314.492 76.9333 315.938 76.6961 316.543 75.6929Z" fill="black"/>
<path d="M328.17 123.508L326.279 102.523" stroke="black" stroke-width="5.05" stroke-miterlimit="10"/>
<path d="M334.916 78.7915C334.916 78.6075 334.916 78.4184 334.916 78.2345C334.926 78.0372 334.926 77.8394 334.916 77.6416" stroke="black" stroke-width="5.05" stroke-linecap="round" stroke-linejoin="round"/>
<path d="M334.921 78.7987L333.276 77.9145L330.127 76.2024" stroke="black" stroke-width="5.05" stroke-linecap="round" stroke-linejoin="round"/>
<path d="M321.746 86.4119C321.746 86.4119 321.587 91.7271 315.51 93.9145" stroke="black" stroke-width="5.05" stroke-miterlimit="10"/>
<path d="M352.63 89.4178C358.998 90.5473 363.455 82.6 361.513 77.7498C360.189 74.4176 360.255 71.8264 362.024 68.5861C362.141 68.3664 362.238 68.1517 362.341 67.9371C363.654 65.0392 363.189 62.167 361.124 59.7036C359.167 57.373 356.218 56.5553 357.066 53.1566C357.448 51.6811 357.589 50.154 357.485 48.6336C357.265 46.649 356.622 44.735 355.599 43.0204C354.576 41.3057 353.198 39.8302 351.557 38.693C348.112 36.4085 344.233 38.4784 340.523 38.4222C336.056 38.3557 332.831 34.5533 328.144 34.4971C325.798 34.4971 323.907 35.371 321.914 36.5056C320.238 37.4716 318.577 38.4886 316.992 39.5721C315.408 40.6556 313.926 41.6164 312.045 41.6164C309.551 41.6164 307.144 40.0832 304.65 40.7987C302.156 41.5142 300.674 43.579 300.183 45.9708C299.386 49.7222 300.781 54.4088 303.29 56.7035C305.876 59.0647 309.848 59.1925 313.134 58.8756C317.335 58.4923 321.495 57.4752 325.609 56.6166L328.108 56.4889H328.144C328.624 56.4935 329.097 56.5926 329.538 56.7802C329.979 56.9683 330.379 57.2407 330.714 57.5831C331.05 57.925 331.314 58.3303 331.494 58.7744C331.673 59.2191 331.762 59.6944 331.758 60.1737C331.815 65.5677 331.277 70.9509 330.153 76.2268" stroke="black" stroke-width="5.05" stroke-miterlimit="10"/>
<path d="M335.882 95.2339C335.882 95.2339 326.386 107.847 317.948 105.021C309.51 102.195 309.081 86.5813 309.081 86.5813" stroke="black" stroke-width="5.05" stroke-linecap="round" stroke-linejoin="round"/>
<path d="M85.3708 448.579V263.246H96.7117V448.655" stroke="black" stroke-width="5.05" stroke-miterlimit="10"/>
<path d="M95.8071 155.404C105.918 155.404 114.114 147.207 114.114 137.097C114.114 126.986 105.918 118.79 95.8071 118.79C85.6964 118.79 77.5002 126.986 77.5002 137.097C77.5002 147.207 85.6964 155.404 95.8071 155.404Z" fill="#CBA135"/>
<path d="M88.6469 141.819C88.1112 141.453 87.6359 141.006 87.2363 140.495C86.5295 139.62 86.1681 138.517 86.2197 137.394C86.2713 136.27 86.7334 135.205 87.5174 134.398C88.029 133.872 88.6555 133.471 89.3481 133.227C90.0406 132.983 90.7801 132.903 91.5089 132.993C91.3474 131.979 91.5201 130.94 92.0016 130.034C92.4825 129.127 93.2461 128.401 94.1757 127.967C95.1059 127.532 96.1521 127.412 97.1558 127.624C98.1601 127.837 99.0683 128.371 99.7424 129.144C101.168 130.759 101.838 133.161 102.088 135.277C102.218 136.382 102.235 137.497 102.139 138.604C102.093 139.161 101.894 142.376 101.373 142.581C97.9281 143.899 92.0558 144.185 88.6469 141.819Z" fill="white"/>
<path d="M224.972 151.084C230.392 151.084 234.785 146.691 234.785 141.272C234.785 135.852 230.392 131.459 224.972 131.459C219.553 131.459 215.16 135.852 215.16 141.272C215.16 146.691 219.553 151.084 224.972 151.084Z" fill="#CBA135"/>
<path d="M224.298 136.724C224.596 136.544 224.923 136.414 225.264 136.341C225.85 136.2 226.467 136.278 227 136.56C227.533 136.843 227.944 137.31 228.156 137.874C228.295 138.243 228.346 138.639 228.306 139.031C228.266 139.422 228.137 139.8 227.927 140.133C228.443 140.297 228.894 140.622 229.215 141.06C229.535 141.498 229.708 142.026 229.708 142.568C229.708 143.111 229.535 143.639 229.215 144.077C228.894 144.515 228.443 144.839 227.927 145.004C226.756 145.26 225.537 145.171 224.415 144.748C223.851 144.557 223.306 144.311 222.79 144.012C222.529 143.864 221.012 143.036 221.037 142.734C221.185 140.751 222.386 137.838 224.298 136.724Z" fill="white"/>
<path d="M148.888 130.079C149.988 130.997 151.215 131.749 152.532 132.312C154.956 133.324 157.602 133.689 160.21 133.371C162.818 133.053 165.299 132.063 167.409 130.498C169.045 129.251 170.476 127.529 172.168 126.277C173.348 125.352 174.765 124.778 176.256 124.621C176.752 124.635 177.244 124.531 177.692 124.319C178.827 123.614 177.488 122.443 177.37 121.615C177.213 120.291 177.546 118.955 178.306 117.859C180.247 114.964 181.127 111.487 180.797 108.017C180.467 104.547 178.946 101.298 176.493 98.8213C174.041 96.3446 170.807 94.7924 167.34 94.428C163.874 94.0641 160.388 94.9105 157.474 96.8229C154.597 98.7088 152.46 101.504 150.293 104.177C148.382 106.533 146.384 108.854 144.983 111.547C141.692 117.879 143.614 125.679 148.888 130.079Z" fill="#CBA135"/>
<path d="M168.406 109.207C170.215 109.207 171.682 107.74 171.682 105.931C171.682 104.121 170.215 102.655 168.406 102.655C166.597 102.655 165.13 104.121 165.13 105.931C165.13 107.74 166.597 109.207 168.406 109.207Z" fill="white"/>
<path d="M162.069 116.955C163.878 116.955 165.345 115.488 165.345 113.679C165.345 111.87 163.878 110.403 162.069 110.403C160.259 110.403 158.793 111.87 158.793 113.679C158.793 115.488 160.259 116.955 162.069 116.955Z" fill="white"/>
<path d="M156.125 124.228C157.934 124.228 159.401 122.761 159.401 120.952C159.401 119.142 157.934 117.676 156.125 117.676C154.316 117.676 152.849 119.142 152.849 120.952C152.849 122.761 154.316 124.228 156.125 124.228Z" fill="white"/>
<g opacity="0.46">
<path opacity="0.46" d="M250.874 90.2713C250.618 91.5546 250.079 92.7639 249.295 93.8121C248.512 94.8598 247.504 95.7194 246.346 96.3276L219.023 110.842C217.993 111.392 216.864 111.733 215.701 111.846C214.539 111.959 213.366 111.84 212.249 111.499C211.132 111.157 210.094 110.598 209.194 109.854C208.293 109.11 207.549 108.195 207.003 107.163L185.226 66.1585C184.122 64.079 183.89 61.6467 184.579 59.3954C185.268 57.1446 186.822 55.2587 188.9 54.1533L216.243 39.6437C220.357 37.4563 226.036 39.1326 228.243 43.3184L250.026 84.307C251.006 86.1321 251.306 88.2454 250.874 90.2713Z" fill="#CBA135"/>
</g>
<path d="M242.763 87.1647L216.121 77.0095C215.781 76.8777 215.5 76.6293 215.326 76.3093C215.153 75.9889 215.099 75.6173 215.175 75.2616L221.354 46.8404C221.424 46.5379 221.584 46.2639 221.813 46.0549C222.042 45.8454 222.33 45.7104 222.637 45.668C222.944 45.6251 223.257 45.6767 223.535 45.8157C223.812 45.9547 224.041 46.175 224.191 46.4469L244.654 85.013C244.799 85.2875 244.857 85.5998 244.82 85.9079C244.783 86.2161 244.654 86.5064 244.449 86.7395C244.244 86.9725 243.973 87.1381 243.672 87.2143C243.371 87.2899 243.054 87.2725 242.763 87.1647Z" fill="white"/>
<g opacity="0.46">
<path opacity="0.46" d="M282.561 118.805C283.12 119.205 283.582 119.727 283.913 120.33C284.243 120.933 284.435 121.603 284.472 122.29L285.495 138.537C285.533 139.151 285.451 139.766 285.252 140.347C285.053 140.928 284.74 141.464 284.333 141.925C283.927 142.385 283.433 142.761 282.88 143.03C282.328 143.3 281.728 143.458 281.115 143.495L256.731 144.997C255.495 145.072 254.28 144.652 253.353 143.832C252.426 143.012 251.861 141.858 251.784 140.623L250.787 124.365C250.743 123.138 251.172 121.94 251.985 121.02C252.798 120.099 253.933 119.526 255.157 119.418L279.535 117.885C280.621 117.824 281.693 118.15 282.561 118.805Z" fill="#CBA135"/>
</g>
<path d="M279.321 122.014L268.649 132.578C268.514 132.707 268.338 132.784 268.151 132.797C267.965 132.81 267.78 132.758 267.627 132.65L255.361 123.501C255.23 123.403 255.133 123.266 255.082 123.111C255.031 122.955 255.029 122.786 255.077 122.63C255.124 122.473 255.218 122.334 255.347 122.232C255.475 122.13 255.632 122.07 255.796 122.06L278.733 120.645C278.893 120.64 279.051 120.684 279.187 120.771C279.322 120.858 279.428 120.983 279.491 121.131C279.554 121.278 279.572 121.441 279.541 121.599C279.511 121.756 279.434 121.901 279.321 122.014Z" fill="white"/>
<g opacity="0.46">
<path opacity="0.46" d="M116.971 208.086C115.371 208.349 113.753 208.486 112.131 208.495C96.6044 208.495 97.1257 194.098 97.1257 194.098L109.99 196.878C109.504 195.687 109.317 194.395 109.448 193.115C109.578 191.835 110.02 190.607 110.736 189.539C113.68 185.235 120.518 187.448 120.518 187.448L124.77 184.709L123.85 189.82L129.549 188.859L126.62 192.247C130.555 196.029 135.569 207.544 123.477 213.529C111.385 219.514 106.167 212.343 106.167 212.343L112.131 208.5L116.971 208.086Z" fill="#CBA135"/>
</g>
<path d="M116.715 194.006C117.743 194.006 118.576 193.173 118.576 192.145C118.576 191.118 117.743 190.285 116.715 190.285C115.688 190.285 114.855 191.118 114.855 192.145C114.855 193.173 115.688 194.006 116.715 194.006Z" fill="white"/>
<path d="M149.143 457.227H361.891" stroke="black" stroke-width="3.15" stroke-miterlimit="10"/>
</svg>
