<svg width="422" height="422" viewBox="0 0 422 422" fill="none" xmlns="http://www.w3.org/2000/svg">
<path d="M77.1247 80.3497C77.264 80.1851 77.4286 80.0332 77.5805 79.877C107.323 50.337 155.385 46.539 193.761 58.5913C212.523 64.4782 227.243 81.0206 244.882 89.2285C250.752 91.9504 256.939 93.7439 263.704 93.9296C281.402 94.4149 297.932 82.7129 315.584 84.059C338.119 85.747 351.391 108.535 354.598 128.791C359.89 162.285 344.563 198.628 325.48 225.387C315.006 240.089 303.22 253.661 291.91 267.688C283.137 278.605 277.355 295.118 288.956 306.461C304.359 321.514 309.098 288.202 327.257 295.806C372.466 314.733 367.309 355.308 357.046 372.678C347.677 388.566 329.616 399.226 311.2 400.732C308.276 400.973 305.337 400.973 302.414 400.732" stroke="#CBA135" stroke-width="5.4" stroke-miterlimit="10"/>
<path d="M158.609 291.788C158.609 291.835 158.609 291.881 158.609 291.927C158.609 295.029 172.341 306.858 174.408 309.048" stroke="#CBA135" stroke-width="5.4" stroke-miterlimit="10"/>
<path d="M115.881 400.579C111.716 400.719 107.779 400.702 104.04 400.55C60.768 395.237 28.2191 309.048 79.1335 282.884" stroke="#CBA135" stroke-width="5.4" stroke-miterlimit="10"/>
<path d="M164.96 177.211V89.8864C164.956 87.3569 163.95 84.9317 162.162 83.1433C160.373 81.3544 157.948 80.3483 155.418 80.345H33.4604C30.9345 80.3538 28.515 81.3624 26.7309 83.1504C24.9468 84.9384 23.9434 87.3603 23.9401 89.8864V263.029C23.9434 265.557 24.9503 267.98 26.7394 269.766C28.5285 271.551 30.9535 272.554 33.4815 272.553H155.439C156.622 272.561 157.796 272.336 158.891 271.891" stroke="black" stroke-width="5.4" stroke-linecap="round" stroke-linejoin="round"/>
<path d="M152.823 86.1885H36.0768C31.7372 86.1885 28.2192 89.7067 28.2192 94.0461V258.879C28.2192 263.219 31.7372 266.737 36.0768 266.737H152.823C157.163 266.737 160.681 263.219 160.681 258.879V94.0461C160.681 89.7067 157.163 86.1885 152.823 86.1885Z" fill="#4789BB"/>
<path d="M152.823 86.1885H36.0768C31.7372 86.1885 28.2192 89.7067 28.2192 94.0461V258.879C28.2192 263.219 31.7372 266.737 36.0768 266.737H152.823C157.163 266.737 160.681 263.219 160.681 258.879V94.0461C160.681 89.7067 157.163 86.1885 152.823 86.1885Z" fill="#33658A"/>
<path d="M150.401 100.162H39.9466C37.7767 100.162 36.0177 101.921 36.0177 104.091V130.036C36.0177 132.205 37.7767 133.965 39.9466 133.965H150.401C152.571 133.965 154.33 132.205 154.33 130.036V104.091C154.33 101.921 152.571 100.162 150.401 100.162Z" fill="#4789BB"/>
<path d="M150.401 100.162H39.9466C37.7767 100.162 36.0177 101.921 36.0177 104.091V130.036C36.0177 132.205 37.7767 133.965 39.9466 133.965H150.401C152.571 133.965 154.33 132.205 154.33 130.036V104.091C154.33 101.921 152.571 100.162 150.401 100.162Z" fill="#33658A"/>
<path d="M94.4478 114.401C96.3798 114.401 97.9462 112.834 97.9462 110.902C97.9462 108.97 96.3798 107.404 94.4478 107.404C92.5159 107.404 90.9495 108.97 90.9495 110.902C90.9495 112.834 92.5159 114.401 94.4478 114.401Z" fill="#CBA135"/>
<path d="M84.6827 126.723C84.6557 125.423 84.8883 124.131 85.3672 122.922C85.8458 121.714 86.5611 120.613 87.4705 119.684C88.3803 118.755 89.4661 118.017 90.6646 117.514C91.8631 117.01 93.1498 116.75 94.4499 116.75C95.7501 116.75 97.0368 117.01 98.2353 117.514C99.4338 118.017 100.52 118.755 101.429 119.684C102.339 120.613 103.054 121.714 103.533 122.922C104.012 124.131 104.244 125.423 104.217 126.723H84.6827Z" fill="#CBA135"/>
<path d="M47.8506 149.055H139.842" stroke="white" stroke-width="5.4" stroke-miterlimit="10"/>
<path d="M47.8506 158.112H139.842" stroke="white" stroke-width="5.4" stroke-miterlimit="10"/>
<path d="M47.8506 216.424H139.842" stroke="white" stroke-width="5.4" stroke-miterlimit="10"/>
<path d="M69.2164 224.985H118.476" stroke="white" stroke-width="5.4" stroke-miterlimit="10"/>
<path d="M71.1619 192.335L63.8233 200.133C63.2283 200.766 62.5142 201.275 61.7221 201.632C60.93 201.988 60.0759 202.185 59.2074 202.212C58.3394 202.238 57.4747 202.094 56.6624 201.786C55.85 201.478 55.1064 201.013 54.4739 200.418C53.8413 199.823 53.3319 199.109 52.9753 198.317C52.6187 197.525 52.4217 196.671 52.3951 195.802C52.3685 194.934 52.5137 194.069 52.8213 193.257C53.1289 192.445 53.594 191.701 54.189 191.069L61.5234 183.27L71.1619 192.335Z" fill="#4789BB"/>
<path d="M71.1619 192.335L63.8233 200.133C63.2283 200.766 62.5142 201.275 61.7221 201.632C60.93 201.988 60.0759 202.185 59.2074 202.212C58.3394 202.238 57.4747 202.094 56.6624 201.786C55.85 201.478 55.1064 201.013 54.4739 200.418C53.8413 199.823 53.3319 199.109 52.9753 198.317C52.6187 197.525 52.4217 196.671 52.3951 195.802C52.3685 194.934 52.5137 194.069 52.8213 193.257C53.1289 192.445 53.594 191.701 54.189 191.069L61.5234 183.27L71.1619 192.335Z" fill="#33658A"/>
<path d="M78.492 184.529L71.1534 192.336L61.515 183.271L68.8578 175.469C70.0621 174.195 71.7219 173.45 73.4744 173.396C75.2266 173.342 76.9289 173.984 78.2093 175.182C79.4782 176.388 80.2197 178.047 80.2724 179.797C80.3256 181.547 79.6858 183.248 78.492 184.529Z" fill="#CBA135"/>
<path d="M107.015 179.447C106.703 177.936 109.8 175.438 110.813 174.894C114.581 172.919 120.38 174.408 122.443 178.181C127.182 186.832 113.868 199.163 106.994 202.21C106.205 201.577 87.3962 187.507 91.8019 178.502C96.2076 169.496 105.922 174.071 107.015 179.447Z" fill="#CBA135"/>
<path d="M92.8231 194.867H103.073" stroke="white" stroke-width="5.4" stroke-linecap="round" stroke-linejoin="round"/>
<path d="M97.9462 199.99V189.74" stroke="white" stroke-width="5.4" stroke-linecap="round" stroke-linejoin="round"/>
<path d="M295.911 197.172C295.911 197.172 272.236 184.415 256.968 181.33C256.968 181.33 256.863 183.609 254.323 189.234C251.782 194.859 244.287 211.482 244.287 211.482L233.037 202.936L233.206 215.677L202.341 248.643L182.832 205.937L185.431 193.923L174.316 198.18L168.378 176.996C168.378 176.996 139.108 183.579 113.898 203.865C88.6875 224.15 81.4671 255.771 79.125 282.884C76.7829 309.998 79.5976 338.588 115.417 348.248C115.417 348.248 132.246 352.468 145.949 346.822C150.219 345.058 156.423 343.412 162.93 341.969L162.719 342.045C162.719 342.045 159.765 352.295 151.207 357.874C151.207 357.874 166.2 369.268 191.82 374.235C217.44 379.202 271.578 382.172 298.865 358.498C326.151 334.824 327.265 295.793 327.265 295.793C327.265 295.793 336.127 220.437 295.911 197.172ZM155.718 263.772C154.789 263.741 153.889 263.438 153.131 262.9C152.373 262.362 151.79 261.613 151.455 260.746C151.119 259.879 151.046 258.932 151.244 258.024C151.443 257.116 151.904 256.286 152.57 255.638C153.237 254.99 154.079 254.552 154.993 254.379C155.906 254.206 156.85 254.306 157.707 254.665C158.565 255.025 159.297 255.629 159.814 256.402C160.33 257.174 160.609 258.082 160.613 259.012C160.591 260.291 160.064 261.509 159.147 262.401C158.23 263.293 156.997 263.785 155.718 263.772ZM259.754 307.217C259.036 310.863 255.192 333.929 245.688 336.639C236.185 339.348 226.804 333.457 204.636 335.757C204.636 335.757 199.859 335.938 193.242 336.529C179.422 320.337 193.335 297.258 193.335 297.258C193.335 297.258 224.749 287.691 239.726 294.595C254.702 301.499 260.484 303.562 259.754 307.217Z" fill="#4789BB"/>
<path d="M295.911 197.172C295.911 197.172 272.236 184.415 256.968 181.33C256.968 181.33 256.863 183.609 254.323 189.234C251.782 194.859 244.287 211.482 244.287 211.482L233.037 202.936L233.206 215.677L202.341 248.643L182.832 205.937L185.431 193.923L174.316 198.18L168.378 176.996C168.378 176.996 139.108 183.579 113.898 203.865C88.6875 224.15 81.4671 255.771 79.125 282.884C76.7829 309.998 79.5976 338.588 115.417 348.248C115.417 348.248 132.246 352.468 145.949 346.822C150.219 345.058 156.423 343.412 162.93 341.969L162.719 342.045C162.719 342.045 159.765 352.295 151.207 357.874C151.207 357.874 166.2 369.268 191.82 374.235C217.44 379.202 271.578 382.172 298.865 358.498C326.151 334.824 327.265 295.793 327.265 295.793C327.265 295.793 336.127 220.437 295.911 197.172ZM155.718 263.772C154.789 263.741 153.889 263.438 153.131 262.9C152.373 262.362 151.79 261.613 151.455 260.746C151.119 259.879 151.046 258.932 151.244 258.024C151.443 257.116 151.904 256.286 152.57 255.638C153.237 254.99 154.079 254.552 154.993 254.379C155.906 254.206 156.85 254.306 157.707 254.665C158.565 255.025 159.297 255.629 159.814 256.402C160.33 257.174 160.609 258.082 160.613 259.012C160.591 260.291 160.064 261.509 159.147 262.401C158.23 263.293 156.997 263.785 155.718 263.772ZM259.754 307.217C259.036 310.863 255.192 333.929 245.688 336.639C236.185 339.348 226.804 333.457 204.636 335.757C204.636 335.757 199.859 335.938 193.242 336.529C179.422 320.337 193.335 297.258 193.335 297.258C193.335 297.258 224.749 287.691 239.726 294.595C254.702 301.499 260.484 303.562 259.754 307.217Z" fill="#33658A"/>
<path d="M286.116 371.068V400.735C238.219 400.735 173.417 400.659 126.6 400.6C126.022 385.332 125.11 350.209 128.984 349.96C133.943 349.656 139.188 346.478 145.24 353.703C151.291 360.927 176.624 373.849 212.11 376.887C247.596 379.926 277.52 371.566 284.166 367.949C284.171 367.954 286.116 364.485 286.116 371.068Z" fill="#4789BB"/>
<path d="M286.116 371.068V400.735C238.219 400.735 173.417 400.659 126.6 400.6C126.022 385.332 125.11 350.209 128.984 349.96C133.943 349.656 139.188 346.478 145.24 353.703C151.291 360.927 176.624 373.849 212.11 376.887C247.596 379.926 277.52 371.566 284.166 367.949C284.171 367.954 286.116 364.485 286.116 371.068Z" fill="#33658A"/>
<path d="M155.718 250.339C160.639 250.339 164.643 254.238 164.643 259.032C164.643 263.826 160.639 267.725 155.718 267.725C150.797 267.725 146.797 263.826 146.797 259.032C146.797 254.238 150.797 250.339 155.718 250.339ZM155.718 247.296C149.109 247.296 143.754 252.55 143.754 259.032C143.754 265.514 149.109 270.768 155.718 270.768C162.327 270.768 167.682 265.514 167.682 259.032C167.682 252.55 162.322 247.292 155.718 247.292V247.296Z" fill="white"/>
<path d="M216.14 194.327L208.468 202.949C208.216 203.151 207.927 203.3 207.616 203.387C207.305 203.474 206.979 203.497 206.659 203.454C206.339 203.412 206.031 203.304 205.754 203.139C205.476 202.974 205.235 202.754 205.046 202.493L199.648 190.879L210.156 182.528L216.14 194.327Z" fill="#4789BB"/>
<path d="M216.14 194.327L208.468 202.949C208.216 203.151 207.927 203.3 207.616 203.387C207.305 203.474 206.979 203.497 206.659 203.454C206.339 203.412 206.031 203.304 205.754 203.139C205.476 202.974 205.235 202.754 205.046 202.493L199.648 190.879L210.156 182.528L216.14 194.327Z" fill="#33658A"/>
<path d="M211.274 199.787L214.528 212.856L205.033 224.913L197.943 209.189L203.197 198.538" fill="#4789BB"/>
<path d="M211.274 199.787L214.528 212.856L205.033 224.913L197.943 209.189L203.197 198.538" fill="#33658A"/>
<path d="M243.591 106.172C241.903 106.552 240.426 107.86 239.299 109.257C238.252 110.567 237.365 111.998 236.658 113.519C236.658 113.519 233.096 98.3269 231.594 85.1478C231.091 80.8603 229.589 78.5646 227.762 77.4083C223.993 75.0198 218.9 77.5729 218.9 77.5729L201.978 86.7894C198.731 88.5782 195.157 89.6949 191.47 90.0725C189.747 90.2709 188.006 90.2709 186.283 90.0725C176.961 85.4643 176.826 67.2845 188.153 67.1579C188.494 67.4761 188.814 67.8158 189.111 68.175C188.948 67.8399 188.796 67.5065 188.655 67.1748C189.289 67.1938 189.919 67.2647 190.541 67.3858C191.47 67.5673 192.335 68.5252 192.913 69.1962C189.904 63.3557 193.111 55.996 199.041 53.7637C202.644 52.409 206.675 52.6665 210.435 53.4598C211.03 53.578 211.62 53.7172 212.215 53.8818C221.643 56.7261 229.897 61.6677 235.995 69.9178C243.713 80.3539 245.642 93.5667 243.591 106.172Z" fill="#2E2E2E"/>
<path d="M136.112 264.007C125.786 310.005 165.424 302.299 216.933 293.231C235.337 289.994 250.997 297.982 260.07 305.435" stroke="black" stroke-width="5.4" stroke-linejoin="round"/>
<path d="M168.378 176.991C144.97 182.751 117.354 196.724 102.162 215.688C82.2731 240.481 78.108 273.447 78.5595 304.308C78.9815 334.46 110.577 355.286 139.256 348.77" stroke="black" stroke-width="5.4" stroke-linejoin="round"/>
<path d="M180.502 165.727H180.52" stroke="black" stroke-width="5.4" stroke-linejoin="round"/>
<path d="M262.602 265.704C262.602 265.704 263.446 285.661 260.07 305.436C258.538 314.462 256.129 323.451 252.369 330.49C251.359 332.349 249.876 333.908 248.069 335.009C246.262 336.11 244.196 336.713 242.08 336.757C238.224 336.827 234.368 336.673 230.53 336.297C197.454 333.191 166.454 340.006 143.847 347.496C142.328 347.994 140.8 348.416 139.264 348.762C153.524 361.701 190.208 385.62 259.568 375.247C352.83 361.321 323.682 238.169 323.682 238.169C321.15 224.901 313.242 212.583 303.734 203.253C292.965 192.703 272.084 185.727 257.888 181.309" stroke="black" stroke-width="5.4" stroke-linejoin="round"/>
<path d="M208.004 158.123C208.004 158.123 179.629 153.059 183.431 119.594C185.119 104.706 188.372 95.599 191.449 90.054" stroke="black" stroke-width="5.4" stroke-linejoin="round"/>
<path d="M234.877 149.32C240.118 141.488 239.316 131.09 240.962 128.473C243.494 124.414 253.622 111.749 247.545 107.188C246.144 106.137 244.806 105.922 243.591 106.166C239.502 107.078 236.658 113.513 236.658 113.513C236.658 113.513 233.1 98.3214 231.594 85.1381C230.087 71.9548 218.896 77.5674 218.896 77.5674L201.973 86.7797C198.728 88.5723 195.154 89.6902 191.466 90.0666C189.536 90.2941 187.585 90.2785 185.659 90.0206C172.577 88.3326 171.733 63.5654 186.739 66.3886C187.668 66.5701 188.533 67.528 189.111 68.199C186.098 62.3585 189.309 54.9988 195.238 52.7665C198.842 51.4118 202.872 51.6693 206.632 52.4626C218.372 54.9398 228.724 60.0582 235.995 69.9161C243.718 80.3606 245.65 93.5739 243.591 106.179" stroke="black" stroke-width="5.4" stroke-linejoin="round"/>
<path d="M204.459 126.693H198.378L198.775 121.874L200.399 102.365" stroke="black" stroke-width="5.4" stroke-linejoin="round"/>
<path d="M198.762 121.873H182.059C180.875 121.873 179.74 121.402 178.902 120.565C178.065 119.728 177.594 118.592 177.594 117.408V102.368H205.826M205.826 102.368V117.408C205.828 118.593 206.299 119.728 207.137 120.565C207.975 121.403 209.111 121.873 210.295 121.873H226.859C228.043 121.873 229.179 121.403 230.017 120.565C230.856 119.728 231.326 118.593 231.328 117.408V102.368H205.826Z" stroke="black" stroke-width="5.4" stroke-linejoin="round"/>
<path d="M204.459 132.508C204.459 132.508 208.768 134.027 213.583 126.676" stroke="black" stroke-width="5.4" stroke-linejoin="round"/>
<path d="M202.168 250.119L233.615 215.22L233.041 202.931L243.916 212.304L257.888 181.325L257.926 181.244C254.51 179.231 251.322 176.853 248.419 174.151C247.082 172.896 245.816 171.585 244.621 170.218C243.21 168.616 241.894 166.934 240.679 165.179L239.696 163.791" stroke="black" stroke-width="5.4" stroke-linejoin="round"/>
<path d="M222.795 201.724L216.321 192.807L209.417 183.709L223.909 174.94L239.709 163.791L244.608 170.218L246.254 172.382L242.258 177.501L211.051 217.558V217.574L205.147 224.913" stroke="black" stroke-width="5.4" stroke-linejoin="round"/>
<path d="M192.529 196.652L209.409 183.721L188.672 162.997L180.814 170.407L205.143 224.926L202.168 250.123L182.836 205.936L185.423 193.925L174.307 198.171L167.855 177.21C175.271 174.348 181.977 169.909 187.507 164.2L188.68 162.984" stroke="black" stroke-width="5.4" stroke-linejoin="round"/>
<path d="M216.321 194.327L208.637 202.948C208.386 203.15 208.096 203.3 207.785 203.386C207.475 203.473 207.15 203.496 206.83 203.453C206.51 203.411 206.203 203.303 205.925 203.138C205.649 202.973 205.408 202.754 205.219 202.492L199.817 190.879" stroke="black" stroke-width="5.4" stroke-linejoin="round"/>
<path d="M211.456 199.787L214.714 212.857" stroke="black" stroke-width="5.4" stroke-linejoin="round"/>
<path d="M203.379 198.538L198.125 209.189" stroke="black" stroke-width="5.4" stroke-linejoin="round"/>
<path d="M239.696 163.791L234.877 149.304C233.565 151.142 231.874 152.678 229.918 153.807" stroke="black" stroke-width="5.4" stroke-linejoin="round"/>
<path d="M191.993 149.304L188.68 162.985" stroke="black" stroke-width="5.4" stroke-linejoin="round"/>
<path d="M214.899 114.53C216.125 114.53 217.119 113.537 217.119 112.311C217.119 111.085 216.125 110.091 214.899 110.091C213.673 110.091 212.68 111.085 212.68 112.311C212.68 113.537 213.673 114.53 214.899 114.53Z" fill="black"/>
<path d="M195.542 114.53C196.768 114.53 197.762 113.537 197.762 112.311C197.762 111.085 196.768 110.091 195.542 110.091C194.316 110.091 193.322 111.085 193.322 112.311C193.322 113.537 194.316 114.53 195.542 114.53Z" fill="black"/>
<path d="M257.517 181.46C257.517 181.46 272.447 187.191 259.036 210.363C254.816 217.63 252.529 221.934 251.36 224.398" stroke="black" stroke-width="5.4" stroke-linejoin="round"/>
<path d="M225.837 275.418C225.837 275.418 220.001 272.806 220.178 271.198C220.356 269.59 232.096 231.193 240.249 226.222C248.402 221.25 253.626 225.538 253.626 225.538C253.626 225.538 261.543 229.825 259.159 241.021C256.774 252.217 242.173 278.959 242.173 278.959L236.447 277.001" stroke="black" stroke-width="5.4" stroke-linejoin="round"/>
<path d="M162.723 178.598C162.723 178.598 154.241 206.45 155.971 247.929" stroke="black" stroke-width="5.4" stroke-linejoin="round"/>
<path d="M155.767 271.236C162.766 271.202 168.413 265.712 168.38 258.974C168.347 252.236 162.647 246.802 155.648 246.836C148.649 246.87 143.002 252.36 143.035 259.098C143.068 265.835 148.768 271.27 155.767 271.236Z" stroke="black" stroke-width="5.4" stroke-linejoin="round"/>
<path d="M286.133 400.736V366.963V366.098" stroke="black" stroke-width="5.4" stroke-linejoin="round"/>
<path d="M126.891 400.613V349.935V349.918" stroke="black" stroke-width="5.4" stroke-linejoin="round"/>
<path d="M66.3468 400.508C66.3468 400.508 91.3883 400.554 126.604 400.6C173.446 400.659 238.236 400.735 286.12 400.735C323.037 400.735 349.889 400.659 350.686 400.508" stroke="black" stroke-width="5.4" stroke-linejoin="round"/>
<path d="M227.69 278.96C229.394 278.96 230.775 277.578 230.775 275.875C230.775 274.171 229.394 272.79 227.69 272.79C225.986 272.79 224.605 274.171 224.605 275.875C224.605 277.578 225.986 278.96 227.69 278.96Z" fill="white"/>
<path d="M234.911 279.558C236.614 279.558 237.995 278.177 237.995 276.473C237.995 274.77 236.614 273.388 234.911 273.388C233.207 273.388 231.826 274.77 231.826 276.473C231.826 278.177 233.207 279.558 234.911 279.558Z" fill="white"/>
<path d="M333.144 137.091C361.256 137.091 384.045 114.302 384.045 86.1897C384.045 58.0777 361.256 35.2881 333.144 35.2881C305.031 35.2881 282.242 58.0777 282.242 86.1897C282.242 114.302 305.031 137.091 333.144 137.091Z" fill="#4789BB"/>
<path d="M333.144 137.091C361.256 137.091 384.045 114.302 384.045 86.1897C384.045 58.0777 361.256 35.2881 333.144 35.2881C305.031 35.2881 282.242 58.0777 282.242 86.1897C282.242 114.302 305.031 137.091 333.144 137.091Z" fill="#33658A"/>
<path d="M332.958 21.1C321.533 21.1004 310.309 24.1081 300.415 29.8209C290.52 35.5336 282.304 43.75 276.591 53.6446C270.877 63.538 267.868 74.7619 267.868 86.1871C267.868 97.6124 270.877 108.836 276.591 118.73C282.304 128.624 290.52 136.841 300.415 142.553C310.309 148.266 321.533 151.274 332.958 151.274C344.383 151.274 355.607 148.266 365.501 142.553C375.396 136.841 383.612 128.624 389.325 118.73C395.037 108.835 398.044 97.612 398.044 86.1871C398.044 74.7623 395.037 63.5388 389.325 53.6446C383.612 43.75 375.396 35.5336 365.501 29.8209C355.607 24.1081 344.383 21.1004 332.958 21.1Z" fill="#4789BB"/>
<path d="M332.958 21.1C321.533 21.1004 310.309 24.1081 300.415 29.8209C290.52 35.5336 282.304 43.75 276.591 53.6446C270.877 63.538 267.868 74.7619 267.868 86.1871C267.868 97.6124 270.877 108.836 276.591 118.73C282.304 128.624 290.52 136.841 300.415 142.553C310.309 148.266 321.533 151.274 332.958 151.274C344.383 151.274 355.607 148.266 365.501 142.553C375.396 136.841 383.612 128.624 389.325 118.73C395.037 108.835 398.044 97.612 398.044 86.1871C398.044 74.7623 395.037 63.5388 389.325 53.6446C383.612 43.75 375.396 35.5336 365.501 29.8209C355.607 24.1081 344.383 21.1004 332.958 21.1Z" fill="#33658A"/>
<path d="M348.061 69.6941L346.323 68.4703L363.967 43.1545L365.705 44.3783L348.061 69.6941Z" fill="white"/>
<path d="M316.453 108.375L311.333 115.695L315.956 118.929L321.076 111.608L316.453 108.375Z" fill="white"/>
<path d="M351.049 76.3187L326.953 110.767C325.687 112.602 323.539 113.332 322.189 112.391L315.344 107.61C313.998 106.669 313.955 104.42 315.238 102.58L339.334 68.1319C340.6 66.2962 342.748 65.5619 344.099 66.5072L350.944 71.2927C352.29 72.2295 352.332 74.4788 351.049 76.3187Z" fill="white"/>
<path d="M321.564 126.896C321.096 127.587 320.425 128.117 319.644 128.411C319.326 128.545 318.98 128.598 318.637 128.567C318.293 128.536 317.962 128.422 317.673 128.234L302.059 117.299C300.962 116.531 300.937 114.675 301.979 113.185C302.448 112.489 303.122 111.956 303.908 111.662C304.226 111.535 304.571 111.486 304.912 111.519C305.253 111.551 305.582 111.666 305.87 111.851L321.484 122.785C322.56 123.549 322.594 125.398 321.564 126.896Z" fill="white"/>
<path d="M354.05 201.513C364.125 201.513 372.293 193.345 372.293 183.27C372.293 173.194 364.125 165.027 354.05 165.027C343.974 165.027 335.807 173.194 335.807 183.27C335.807 193.345 343.974 201.513 354.05 201.513Z" fill="#CBA135"/>
<path d="M348.18 184.313C351.421 184.313 354.05 181.685 354.05 178.443C354.05 175.201 351.421 172.573 348.18 172.573C344.938 172.573 342.31 175.201 342.31 178.443C342.31 181.685 344.938 184.313 348.18 184.313Z" fill="white"/>
<path d="M61.5234 367.253C71.5986 367.253 79.7665 359.086 79.7665 349.01C79.7665 338.935 71.5986 330.767 61.5234 330.767C51.4481 330.767 43.2803 338.935 43.2803 349.01C43.2803 359.086 51.4481 367.253 61.5234 367.253Z" fill="#CBA135"/>
<path d="M297.582 176.35C302.618 176.35 306.701 172.268 306.701 167.231C306.701 162.194 302.618 158.112 297.582 158.112C292.545 158.112 288.462 162.194 288.462 167.231C288.462 172.268 292.545 176.35 297.582 176.35Z" fill="#CBA135"/>
<path d="M56.9236 349.7C60.1654 349.7 62.7936 347.071 62.7936 343.83C62.7936 340.587 60.1654 337.959 56.9236 337.959C53.6818 337.959 51.0536 340.587 51.0536 343.83C51.0536 347.071 53.6818 349.7 56.9236 349.7Z" fill="white"/>
<path d="M363.35 362.072C368.387 362.072 372.47 357.989 372.47 352.952C372.47 347.916 368.387 343.833 363.35 343.833C358.314 343.833 354.231 347.916 354.231 352.952C354.231 357.989 358.314 362.072 363.35 362.072Z" fill="#CBA135"/>
<path d="M294.332 168.281C296.127 168.281 297.582 166.827 297.582 165.032C297.582 163.238 296.127 161.782 294.332 161.782C292.538 161.782 291.083 163.238 291.083 165.032C291.083 166.827 292.538 168.281 294.332 168.281Z" fill="white"/>
<path d="M359.557 353.332C360.808 353.332 361.823 352.317 361.823 351.065C361.823 349.814 360.808 348.799 359.557 348.799C358.305 348.799 357.291 349.814 357.291 351.065C357.291 352.317 358.305 353.332 359.557 353.332Z" fill="white"/>
<path d="M148.384 61.7264C153.42 61.7264 157.503 57.6435 157.503 52.607C157.503 47.5704 153.42 43.4875 148.384 43.4875C143.347 43.4875 139.264 47.5704 139.264 52.607C139.264 57.6435 143.347 61.7264 148.384 61.7264Z" fill="#CBA135"/>
<path d="M146.999 55.0452C148.794 55.0452 150.249 53.5906 150.249 51.7958C150.249 50.001 148.794 48.5464 146.999 48.5464C145.205 48.5464 143.75 50.001 143.75 51.7958C143.75 53.5906 145.205 55.0452 146.999 55.0452Z" fill="white"/>
<path d="M335.811 306.566C354.465 306.566 369.588 291.443 369.588 272.789C369.588 254.134 354.465 239.012 335.811 239.012C317.156 239.012 302.034 254.134 302.034 272.789C302.034 291.443 317.156 306.566 335.811 306.566Z" fill="white"/>
<path d="M335.811 298.802C350.177 298.802 361.823 287.156 361.823 272.79C361.823 258.424 350.177 246.778 335.811 246.778C321.445 246.778 309.799 258.424 309.799 272.79C309.799 287.156 321.445 298.802 335.811 298.802Z" fill="#4789BB"/>
<path d="M335.811 298.802C350.177 298.802 361.823 287.156 361.823 272.79C361.823 258.424 350.177 246.778 335.811 246.778C321.445 246.778 309.799 258.424 309.799 272.79C309.799 287.156 321.445 298.802 335.811 298.802Z" fill="#33658A"/>
<path d="M335.49 267.523C335.182 266.012 338.275 263.514 339.309 262.97C343.082 260.995 348.876 262.484 350.944 266.257C355.678 274.908 342.364 287.243 335.494 290.286C334.701 289.653 315.892 275.583 320.302 266.578C324.712 257.572 334.401 262.151 335.49 267.523Z" fill="white"/>
</svg>
