<svg id="visual" viewBox="0 0 960 540" width="960" height="540" xmlns="http://www.w3.org/2000/svg" xmlns:xlink="http://www.w3.org/1999/xlink" version="1.1"><path d="M0 255L16 256.7C32 258.3 64 261.7 96 285.3C128 309 160 353 192 382.7C224 412.3 256 427.7 288 407.7C320 387.7 352 332.3 384 297.2C416 262 448 247 480 269.7C512 292.3 544 352.7 576 353C608 353.3 640 293.7 672 270.2C704 246.7 736 259.3 768 278.8C800 298.3 832 324.7 864 316.8C896 309 928 267 944 246L960 225L960 541L944 541C928 541 896 541 864 541C832 541 800 541 768 541C736 541 704 541 672 541C640 541 608 541 576 541C544 541 512 541 480 541C448 541 416 541 384 541C352 541 320 541 288 541C256 541 224 541 192 541C160 541 128 541 96 541C64 541 32 541 16 541L0 541Z" fill="#0099FF" stroke-linecap="round" stroke-linejoin="miter"></path></svg>