<svg id="visual" viewBox="0 0 960 540" width="960" height="540" xmlns="http://www.w3.org/2000/svg" xmlns:xlink="http://www.w3.org/1999/xlink" version="1.1"><rect x="0" y="0" width="960" height="540" fill="#0066FF"></rect><path d="M0 320L16 330.2C32 340.3 64 360.7 96 366.5C128 372.3 160 363.7 192 357.7C224 351.7 256 348.3 288 349.7C320 351 352 357 384 363.2C416 369.3 448 375.7 480 382.2C512 388.7 544 395.3 576 405.2C608 415 640 428 672 415.5C704 403 736 365 768 346.5C800 328 832 329 864 335.7C896 342.3 928 354.7 944 360.8L960 367L960 541L944 541C928 541 896 541 864 541C832 541 800 541 768 541C736 541 704 541 672 541C640 541 608 541 576 541C544 541 512 541 480 541C448 541 416 541 384 541C352 541 320 541 288 541C256 541 224 541 192 541C160 541 128 541 96 541C64 541 32 541 16 541L0 541Z" fill="#EEFBFB" stroke-linecap="round" stroke-linejoin="miter"></path></svg>